<svg xmlns="http://www.w3.org/2000/svg" width="380" height="380" xmlns:v="https://vecta.io/nano"><path d="M190.688-.437l2.925.008C208.105-.368 221.916.306 236 4l2.242.551c20.809 5.179 40.493 14.169 58.391 25.906 1.686 1.099 3.417 2.132 5.172 3.117L304 35v2l2.188.762C313.057 40.786 318.884 46.574 324 52l1.813 1.688C327 55 327 55 327 57l4 2v2l1.811.775c2.419 1.354 3.553 2.619 5.212 4.823l1.646 2.166 1.706 2.299 1.764 2.346C346.942 78.496 350.592 83.639 354 89l1.59 2.277c8.21 12.082 13.652 25.873 18.285 39.66l.83 2.468c4.073 12.597 5.771 24.423 5.764 37.602l.023 4.852.009 10.12.041 10.257c.328 35.588.328 35.588-5.542 51.763l-2.141 7.013c-2.941 9.525-7.122 18.243-11.859 26.987l-.944 1.795C347.17 308.258 327.959 329.442 306 346l-2.953 2.262c-6.071 4.553-12.293 8.293-19.047 11.738l-3.687 1.938c-9.206 4.779-18.55 8.586-28.312 12.063l-3.656 1.48c-11.73 4.323-23.04 5.007-35.375 5.023l-5.174.03-10.801.022c-3.648 0-7.295.021-10.943.062-38.325.425-38.325.425-56.05-6.617l-6.258-2.125-4.867-1.875-2.651-1.032c-6.38-2.53-12.376-5.36-18.224-8.968l-3.754-2.242C85.352 352.38 77.127 346.475 69 340l-2.359-1.66L65 337v-2l-1.793-.836C52.692 328.618 45.28 317.003 38 308l-2.27-2.645C34 303 34 303 34 300h-2c-1.432-1.992-2.694-3.955-3.937-6.062l-1.179-1.988C18.681 277.78 11.397 262.802 7 247l-1.074-3.836c-4.605-17.083-6.481-33.681-6.363-51.352l.007-2.852C-.374 174.623.51 160.958 4 147l.875-3.996C12.599 110.418 30.943 80.894 54 57l2.535-2.727C67.188 43.123 79.778 33.885 93 26l2.668-1.691C104.644 18.775 114.232 14.886 124 11l3.102-1.254C147.503 1.888 168.987-.581 190.688-.437z" fill="#800101"/><path d="M190.688-.437l2.925.008C208.105-.368 221.916.306 236 4l2.242.551c20.809 5.179 40.493 14.169 58.391 25.906 1.686 1.099 3.417 2.132 5.172 3.117L304 35v2l2.188.762C313.057 40.786 318.884 46.574 324 52l1.813 1.688C327 55 327 55 327 57l4 2v2l1.811.775c2.419 1.354 3.553 2.619 5.212 4.823l1.646 2.166 1.706 2.299 1.764 2.346C346.942 78.496 350.592 83.639 354 89l1.59 2.277c8.21 12.082 13.652 25.873 18.285 39.66l.83 2.468c4.073 12.597 5.771 24.423 5.764 37.602l.023 4.852.009 10.12.041 10.257c.328 35.588.328 35.588-5.542 51.763l-2.141 7.013c-2.941 9.525-7.122 18.243-11.859 26.987l-.944 1.795C347.17 308.258 327.959 329.442 306 346l-2.953 2.262c-6.071 4.553-12.293 8.293-19.047 11.738l-3.687 1.938c-9.206 4.779-18.55 8.586-28.312 12.063l-3.656 1.48c-11.73 4.323-23.04 5.007-35.375 5.023l-5.174.03-10.801.022c-3.648 0-7.295.021-10.943.062-38.325.425-38.325.425-56.05-6.617l-6.258-2.125-4.867-1.875-2.651-1.032c-6.38-2.53-12.376-5.36-18.224-8.968l-3.754-2.242C85.352 352.38 77.127 346.475 69 340l-2.359-1.66L65 337v-2l-1.793-.836C52.692 328.618 45.28 317.003 38 308l-2.27-2.645C34 303 34 303 34 300h-2c-1.432-1.992-2.694-3.955-3.937-6.062l-1.179-1.988C18.681 277.78 11.397 262.802 7 247l-1.074-3.836c-4.605-17.083-6.481-33.681-6.363-51.352l.007-2.852C-.374 174.623.51 160.958 4 147l.875-3.996C12.599 110.418 30.943 80.894 54 57l2.535-2.727C67.188 43.123 79.778 33.885 93 26l2.668-1.691C104.644 18.775 114.232 14.886 124 11l3.102-1.254C147.503 1.888 168.987-.581 190.688-.437zM147.75 39.375l-2.282.649C121.662 46.979 102.225 60.621 84 77l-2.047 1.824c-24.442 23.104-42.883 61.119-44.083 94.809l-.003 3.847-.003 2.103.005 4.384-.006 6.589c-.011 13.031.749 24.712 4.762 37.193l1.09 3.447C51.741 256.061 64.026 277.003 82 296l2.328 2.488C99.332 314.049 117.898 325.257 138 333l2.707 1.105c5.49 2.148 11.073 3.693 16.793 5.082l2.048.506c35.972 8.337 75.496.904 107.452-16.694l3.195-1.711c34.827-19.368 59.69-53.335 71.004-91.195 3.717-13.376 5.135-26.268 5.062-40.114l.013-7.232c.036-38.909-16.047-74.618-42.948-102.372-1.12-1.163-2.214-2.351-3.302-3.544-17.621-18.824-41.899-30.583-66.148-38.145l-2.31-.735c-12.484-3.711-25.27-4.305-38.199-4.268-2.299.003-4.597-.02-6.896-.046-13.347-.057-25.884 2.057-38.721 5.736z" fill="#f6f1f1"/><path d="M192 47c2 1 2 1 2.85 3.059l.849 2.734.966 3.069 1.022 3.326 2.145 6.848 1.092 3.516 4.951 15.574 1.68 5.258.79 2.396C209 95 209 95 209.602 98.863c1.6 3.588 2.166 3.848 5.617 5.359l5.281 1.84 5.492 2.035 2.647.981c12.957 5.058 26.5 15.951 33.249 28.104 2.182 3.135 3.339 4.573 7.012 5.733 3.597.337 7.077.364 10.689.279l3.938.024 10.303-.069 10.538-.017L325 143v2c-1.719 1.321-3.506 2.553-5.312 3.75-6.665 4.486-13.152 9.189-19.565 14.029-3.715 2.789-7.393 5.451-11.415 7.78-7.028 4.022-7.028 4.022-10.645 11.016-.13 2.76-.167 5.377-.078 8.125.221 7.306-2.12 14.301-3.984 21.301l-.613 2.766c-2.187 8.984-7.695 17.913-13.676 24.914-1.867 2.138-1.867 2.138-1.988 4.496l.34 2.137.285 2.113c.733 2.894 1.77 5.625 2.843 8.408 1.357 3.633 2.478 7.337 3.622 11.041l4.945 15.223.852 2.463 1.649 4.651c1.289 3.72 1.934 6.031.741 9.788l-2.57-1.836-1.694-1.21-3.783-2.703-9.366-6.685-1.665-1.189-3.371-2.39c-3.451-2.446-6.834-4.962-10.187-7.542l-2.413-1.825-4.646-3.594c-4.502-3.38-4.502-3.38-10.022-3.983L220 267l-2.66.719-2.402.781c-16.563 5.369-35.569 3.62-51.937-1.5-3.585-1.088-3.585-1.088-7.042-.019l-2.005 1.562-2.286 1.738-2.417 1.906-5.102 3.891-2.599 1.994c-3.822 2.889-7.742 5.63-11.675 8.365-5.241 3.659-10.367 7.392-15.309 11.453C113 299 113 299 111 299c1.378-8.607 4.072-16.714 6.875-24.937l1.316-3.92c1.94-5.76 3.932-11.479 6.129-17.146 1.511-4.18 2.396-7.513 1.68-11.996-1.75-3.231-1.75-3.231-4.187-6.25-4.174-5.634-7.126-11.258-9.812-17.75l-3.203-6.637c-2.362-7.004-1.922-14.568-1.859-21.863l.014-3.07L108 178l-2.035-.656c-3.909-1.772-7.022-4.224-10.402-6.844l-4.297-3.273-2.17-1.651c-3.052-2.294-6.163-4.5-9.283-6.7-4.795-3.395-9.52-6.869-14.187-10.437l-1.716-1.303c-1.323-1.02-2.619-2.073-3.909-3.134v-1l2.179.043 20.432.188 10.502.102c4.035.086 8.065.074 12.101.058l3.77.121c5.484-.089 8.715-.262 12.773-4.162 2.349-2.95 4.287-6.128 6.242-9.35 6.873-8.615 15.595-14.531 25-20l2.211-1.305c2.97-1.616 5.402-2.639 8.789-3.129 6.359-1.097 6.359-1.097 11.148-5.14 2.53-4.954 3.895-10.334 5.352-15.677l1.43-4.742 2.746-9.389c1.295-4.558 2.684-9.083 4.105-13.604l.633-2.017L192 47z" fill="#daa627"/><path d="M192 47c2 1 2 1 2.85 3.059l.849 2.734.966 3.069 1.022 3.326 2.145 6.848 1.092 3.516 4.951 15.574 1.68 5.258.79 2.396C209 95 209 95 209.602 98.863c1.6 3.588 2.166 3.848 5.617 5.359l5.281 1.84 5.492 2.035 2.647.981c12.957 5.058 26.5 15.951 33.249 28.104 2.182 3.135 3.339 4.573 7.012 5.733 3.597.337 7.077.364 10.689.279l3.938.024 10.303-.069 10.538-.017L325 143v2c-1.719 1.321-3.506 2.553-5.312 3.75-6.665 4.486-13.152 9.189-19.565 14.029-3.715 2.789-7.393 5.451-11.415 7.78-7.028 4.022-7.028 4.022-10.645 11.016-.13 2.76-.167 5.377-.078 8.125.221 7.306-2.12 14.301-3.984 21.301l-.613 2.766c-2.187 8.984-7.695 17.913-13.676 24.914-1.867 2.138-1.867 2.138-1.988 4.496l.34 2.137.285 2.113c.733 2.894 1.77 5.625 2.843 8.408 1.357 3.633 2.478 7.337 3.622 11.041l4.945 15.223.852 2.463 1.649 4.651c1.289 3.72 1.934 6.031.741 9.788l-2.57-1.836-1.694-1.21-3.783-2.703-9.366-6.685-1.665-1.189-3.371-2.39c-3.451-2.446-6.834-4.962-10.187-7.542l-2.413-1.825-4.646-3.594c-4.502-3.38-4.502-3.38-10.022-3.983L220 267l-2.66.719-2.402.781c-16.563 5.369-35.569 3.62-51.937-1.5-3.585-1.088-3.585-1.088-7.042-.019l-2.005 1.562-2.286 1.738-2.417 1.906-5.102 3.891-2.599 1.994c-3.822 2.889-7.742 5.63-11.675 8.365-5.241 3.659-10.367 7.392-15.309 11.453C113 299 113 299 111 299c1.378-8.607 4.072-16.714 6.875-24.937l1.316-3.92c1.94-5.76 3.932-11.479 6.129-17.146 1.511-4.18 2.396-7.513 1.68-11.996-1.75-3.231-1.75-3.231-4.187-6.25-4.174-5.634-7.126-11.258-9.812-17.75l-3.203-6.637c-2.362-7.004-1.922-14.568-1.859-21.863l.014-3.07L108 178l-2.035-.656c-3.909-1.772-7.022-4.224-10.402-6.844l-4.297-3.273-2.17-1.651c-3.052-2.294-6.163-4.5-9.283-6.7-4.795-3.395-9.52-6.869-14.187-10.437l-1.716-1.303c-1.323-1.02-2.619-2.073-3.909-3.134v-1l2.179.043 20.432.188 10.502.102c4.035.086 8.065.074 12.101.058l3.77.121c5.484-.089 8.715-.262 12.773-4.162 2.349-2.95 4.287-6.128 6.242-9.35 6.873-8.615 15.595-14.531 25-20l2.211-1.305c2.97-1.616 5.402-2.639 8.789-3.129 6.359-1.097 6.359-1.097 11.148-5.14 2.53-4.954 3.895-10.334 5.352-15.677l1.43-4.742 2.746-9.389c1.295-4.558 2.684-9.083 4.105-13.604l.633-2.017L192 47zm-28 74l-2.855 1.246C144.325 130.425 131.222 145.424 125 163c-2.436 7.464-3.55 14.341-3.5 22.188l.009 3.014c.195 8.979 2.084 16.505 5.491 24.799l1.43 3.594c2.465 5.347 5.992 9.759 9.57 14.406l1.434 1.945c4.543 5.797 10.556 9.894 16.566 14.055l2.215 1.543c14.252 8.89 34.056 9.692 50.203 6.762 17.608-4.272 33.52-15.646 43.395-30.867L255 219l1.215-2.02c8.17-14.644 8.379-36.044 4.098-51.918-.714-2.042-1.48-4.066-2.312-6.062l-1.133-2.742C248.354 137.708 231.748 125.091 213 118c-15.579-4.697-34.302-3.864-49 3z" fill="#fbf4d9"/><path d="M226.625 146.063c8.7 7.382 15.465 17.575 17.375 28.938.214 3.831.185 7.663.188 11.5l.037 3.129.006 3.027.012 2.744c-.266 2.847-1.064 5.008-2.243 7.6l-4.375-.937-2.461-.527C233 201 233 201 231 200l-1.062 2.438c-5.312 10.5-13.983 18.299-24.937 22.563-11.712 3.068-23.225 1.947-33.789-3.687L169 220l-6 9c-12.188-6.094-17.247-17.934-22.203-29.906-1.075-4.174-1.126-8.113-1.109-12.406l-.049-2.436c-.005-5.928 1.201-10.755 3.361-16.252l.922-2.531c5.409-12.86 15.489-22.441 28.043-28.281 18.717-7.323 39.008-3.031 54.66 8.875z" fill="#fddd08"/><path d="M191.125 118.625l3.051.005c19.437.317 35.153 8.116 48.679 22.022C244 142 244 142 244 143c-11.917.826-19.262.604-29-7-5.105-2.945-10.207-3.717-16-4l-3.266-.16c-16.418-.416-30.498 4.383-42.568 15.713-10.074 10.044-15.475 23.409-15.604 37.572.097 7.587 1.534 14.467 4.539 21.426C143 209 143 209 143 213h2c1.227 1.688 1.227 1.688 2.625 4 5.57 8.571 12.29 14.361 21.375 19l2.273 1.258c11.269 5.215 27.253 4.725 38.847.734 4.682-1.821 8.968-3.76 12.88-6.992 3.471 1.409 4.881 2.906 6.75 6.125l1.297 2.195L232 241c-16.021 10.226-33.832 15.931-52.896 11.919C160.701 248.576 145.887 238.513 135 223c-2.319-4.224-4.228-8.522-6-13l-.992-2.387c-5.933-14.832-4.584-33.072 1.227-47.687 2.351-5.411 5.15-10.259 8.766-14.926l1.988-2.57c13.075-15.632 30.932-23.839 51.137-23.805z" fill="#d9a526"/><path d="M226.625 146.063c8.7 7.382 15.465 17.575 17.375 28.938.214 3.831.185 7.663.188 11.5l.037 3.129.006 3.027.012 2.744c-.266 2.847-1.064 5.008-2.243 7.6l-4.375-.937-2.461-.527C233 201 233 201 231 200l.063-2.06.187-9.377.102-3.24c.086-7.063-.873-12.162-4.352-18.322l-1.687-3.062c-6.153-7.815-14.241-14.644-24.125-16.75-1.394-.089-2.791-.148-4.187-.187l-2.781-.187c-9.945-.41-18.256 2.12-26.219 8.188l-2.437 1.805c-7.721 6.615-11.783 16.336-12.91 26.254-.594 12.687 4.122 22.565 12.348 31.941l2.438 3.063L169 220l-6 9c-12.188-6.094-17.247-17.934-22.203-29.906-1.075-4.174-1.126-8.113-1.109-12.406l-.049-2.436c-.005-5.928 1.201-10.755 3.361-16.252l.922-2.531c5.409-12.86 15.489-22.441 28.043-28.281 18.717-7.323 39.008-3.031 54.66 8.875z" fill="#daa724"/><path d="M199 131l2.473.02c11.803.578 23.263 8.957 31.527 16.98 3.593 3.982 6.354 8.335 9 13l1.66 2.875c5.404 11.319 5.91 27.188 1.902 39.02-6.234 15.51-16.547 27.693-31.805 34.729-12.888 5.394-29.08 6.076-42.132.814-5.862-2.772-10.885-6.022-15.625-10.437l-2.215-2.047c-3.482-3.349-6.702-6.527-8.785-10.953v-2h-2l-2.437-7.187-.697-2.041c-4.867-14.46-4.042-27.909 2.135-41.771 3.653-6.967 8.038-12.866 14-18l1.832-1.582C170.245 132.432 183.513 130.471 199 131zm-48 22c-9.658 12.02-12.222 25.565-11.29 40.593C141.382 207.466 150.6 220.201 161 229h2c1.59-2.018 1.59-2.018 3.125-4.5l1.633-2.531L169 220l2.211 1.313c10.549 5.626 22.165 6.963 33.789 3.563 2.019-.821 2.019-.821 4-1.875l2.508-1.254C220.922 216.59 226.275 209.449 231 200l10 3c3.649-5.474 3.184-9.723 3.188-16.187l.037-3.119c.026-13.403-4.923-24.93-14.225-34.693-24.137-21.946-57.243-19.175-79 4z" fill="#fddd0a"/><path d="M348 269c.313 5.218-.021 8.631-3 13l-6 3c-2.367 3.048-2.367 3.048-4 6l3.313-1.437A80.43 80.43 0 0 1 345 287c-.66 5.609-3.625 10.448-8 14-2.102.679-4.232 1.276-6.375 1.813-5.8 1.662-8.481 3.064-11.625 8.188l3.063-1c3.692-1.07 7.09-1.157 10.938-1-2.513 5.834-7.594 9.322-12.687 12.875-4.388 1.49-8.576 1.54-13.191 1.621-3.763.345-3.763.345-8.121 4.504l15 1c-1.238 3.713-2.564 4.38-5.75 6.563l-2.609 1.816c-6.079 3.732-10.717 3.823-17.703 3.621l-5.348-.125-2.379-.07c-2.622.095-2.622.095-6.211 2.195l15 3c-1 3-1 3-3.152 4.352-6.166 2.819-11.963 5.121-18.848 4.648-3.312-1.437-3.312-1.437-6-3-3.052-.381-4.886-.038-7.812.938-3.774 1.258-7.236 1.654-11.187 2.063 2.556-3.026 5.398-4.147 9-5.687 4.248-1.941 4.248-1.941 7.277-5.305a69.89 69.89 0 0 0 1.18-4.129c1.59-5.503 7.964-8.698 12.457-11.742C274 327 274 327 277 327c-1.298 5.299-3.15 9.345-6 14 4.047-1.508 5.679-2.346 7.617-6.293l1.258-3.895c2.872-8.123 6.901-12.874 14-17.812 2.125-1 2.125-1 4.125-1 .184 4.055-.107 6.45-2 10v4c4.12-3.318 4.878-6.706 5.813-11.687 1.546-7.155 3.96-12.036 9.188-17.312l1.59-1.73C314 294 314 294 316 294c.103 5.126.036 9.95-1 15 2.607-1.548 2.607-1.548 5-4 .671-3.29.671-3.29.563-6.875.214-5.587.515-8.876 4.438-13.125l2.563-2.812C330 280 330 280 333 279v9c3.563-5.316 3.563-5.316 5.938-11.187 1.439-3.81 4.631-7.812 9.063-7.812zm-311 1c4.714 1.347 7.429 3.929 10 8a60.14 60.14 0 0 1 2.227 6.07c.876 2.426.876 2.426 3.773 5.93v-10c5.173 3.174 9.038 6.113 11 12l.426 9.773c.42 3.851.42 3.851 4.574 8.227l1-14c3.501 1.751 4.718 2.493 7.063 5.313l1.473 1.738c4.21 5.602 5.047 9.981 5.742 16.891.837 3.543 1.923 4.801 4.723 7.059l2 1-1.5-3.562c-1.53-4.03-1.767-7.159-1.5-11.437 6.908 3.454 13.638 8.304 16.875 15.563C106 332 106 332 106.813 335.75c1.055 4.042 1.055 4.042 7.188 6.25l-5-13c4.632.926 6.423 1.646 10.125 4.25l2.57 1.766c3.404 2.931 4.977 5.813 6.18 10.109 1.433 3.663 2.58 4.257 6.125 5.875 2.1.785 4.201 1.546 6.328 2.254C142 354 142 354 143 356l-4.25-.437-2.391-.246C134 355 134 355 131.922 354.477c-3.635-.901-7.482-1.22-10.859.523-5.26 2.55-10.563 1.03-15.812-.75-4.005-1.442-6.4-3.08-9.25-6.25 4.982-1.916 9.727-2.555 15-3-2.477-2.286-3.705-2.976-7.125-3.25-2.816.067-2.816.067-4.875 1.25-8.501 1.338-14.851-1.591-22-6-1.69-1.304-3.364-2.629-5-4l1-3 13-1c-4.935-3.948-7.072-4.63-12.937-5-7.783-.494-12.471-3.11-17.937-8.625l-1.805-1.789C52 312 52 312 52 310l14 1c-3.234-4.273-5.6-5.308-10.875-6.312-5.686-1.218-8.294-3.1-11.82-7.652C41.258 293.843 40 291.853 40 288l1.625.875c2.728 1.292 5.501 2.211 8.375 3.125-1.639-3.368-2.593-4.796-6-6.5-3.584-1.792-4.48-2.819-6-6.5-.513-2.993-.809-5.971-1-9z" fill="#850c0c"/><path d="M206 166c4.954 3.231 8.124 7.372 10 13 1.264 15.225 1.264 15.225-3.437 21.355-8.784 9.246-8.784 9.246-15.078 9.91-9.303-.053-15.768-.587-22.719-7.223-5.018-5.806-6.416-11.831-6.078-19.406.823-6.945 3.282-11.398 8.406-16.164 9.264-7.157 18.891-6.412 28.906-1.473z" fill="#daa61e"/><path d="M191.125 118.625l3.051.005c19.437.317 35.153 8.116 48.679 22.022C244 142 244 142 244 143c-11.917.826-19.262.604-29-7-5.105-2.945-10.207-3.717-16-4l-3.266-.16c-16.455-.417-30.429 4.413-42.564 15.696-6.141 6.08-10.106 13.438-13.17 21.464-4.318-.508-8.033-1.197-12-3 3.728-16.366 14.857-29.066 28.727-38.023 11.167-6.743 21.424-9.373 34.398-9.352z" fill="#d9a423"/><path d="M169 157c4.206 1.502 5.739 4.286 8 8l-1.426 1.469c-6.678 7.189-9.192 12.978-8.852 22.863.82 7.89 4.472 13.356 10.277 18.668 5.561 4.438 11.587 4.668 18.523 4.445 6.914-.886 12.196-3.71 16.914-8.82 6.21-8.269 5.908-15.684 5.563-25.625l10-3c2.683 10.732 1.734 21.652-3.875 31.188L222 209l-2.125 3c-6.219 7.246-16.054 11.233-25.375 12.281-10.123.38-18.714-2.887-26.5-9.281-6.793-6.355-12.525-14.989-13.168-24.48-.09-12.425 2.602-22.295 11.168-31.52l3-2z" fill="#fcdd10"/><path d="M191.438 115.625l3.197-.035c10.354.038 19.324 2.409 28.49 7.16l2.076 1.063c5.432 2.852 10.251 6.046 14.799 10.187l2.293 2.051c10.889 10.269 18.945 24.391 19.868 39.605.456 30.913.456 30.913-7.161 43.344l-1.648 2.766C246.564 232.57 238.146 241.604 227 248l-1.809 1.105c-15.502 8.701-35.875 9.437-52.879 5.332C154.209 249.095 138.163 235.477 129 219c-2.209-4.842-3.65-9.857-5-15l-1.094-3.254c-4.216-17.425-.618-35.895 8.379-51.164 13.769-20.732 35.018-34.232 60.152-33.957zm-51.187 26.188C127.064 157.869 123.024 175.646 125 196c3.088 17.188 12.087 34.086 26.301 44.52 15.027 10.369 32.03 15.667 50.289 12.945 18.286-3.633 35.036-11.957 45.734-27.781A198.39 198.39 0 0 0 253 216l1.273-2.18c7.414-13.435 7.823-31.228 3.727-45.82-5.874-18.633-17.528-33.772-35-43-10.283-4.331-20.03-6.193-31.125-6.25l-2.977-.062c-19.154-.101-35.76 9.351-48.648 23.125z" fill="#f8efda"/><path d="M193 134c13.191.535 24.087 4.191 34 13l2.488 1.852c7.452 6.374 12.89 16.499 14.512 26.148.214 3.831.185 7.663.188 11.5l.037 3.129.006 3.027.012 2.744c-.266 2.847-1.064 5.008-2.243 7.6l-4.375-.937-2.461-.527C233 201 233 201 231 200l.063-2.06.187-9.377.102-3.24c.086-7.063-.873-12.162-4.352-18.322l-1.687-3.062C216.543 152.798 206.864 147.753 193 146v-12z" fill="#fede08"/><path d="M256 242c1.826 3.386 3.039 6.852 4.25 10.5l.644 1.939c2.129 6.488 4.068 13.033 5.962 19.594 1.418 4.837 3.091 9.364 5.144 13.967 1.425 4.203 2.292 6.764 1 11l-2.57-1.836-1.694-1.21-3.783-2.703-9.366-6.685L245 279l-2.336-1.673L235.25 272l-2.386-1.71-2.224-1.602-1.983-1.426C227 266 227 266 225 264l2.813-1.062C238.821 258.166 247.652 250.455 256 242z" fill="#d7a11f"/><path d="M266 143h59v2l-5.312 3.75c-6.665 4.486-13.152 9.189-19.565 14.029-3.715 2.789-7.393 5.451-11.415 7.78-6.426 3.536-6.426 3.536-10.385 9.424-.861 4.708-.735 9.267-.322 14.018h-1l-.028-1.781C276.599 173.507 273.6 160.734 266 143z" fill="#d7a020"/><path d="M128 242l2.938 2.5 1.953 1.66 4.156 3.773c5.059 4.736 10.295 8.256 16.352 11.621C156 263 156 263 159 265c-7.663 6.024-15.46 11.794-23.455 17.369-5.964 4.175-11.784 8.523-17.544 12.974C113.213 299 113.213 299 111 299c1.378-8.607 4.072-16.714 6.875-24.937l1.316-3.92 7.041-19.906c.932-2.713 1.46-5.387 1.768-8.237z" fill="#d7a01f"/><path d="M60 143h59l-5 11-2.25 8.125c-1.667 6.792-1.667 6.792-2.75 7.875l-.562 4.063L108 178c-4.882-1.574-8.44-4.402-12.437-7.5l-4.297-3.273-2.17-1.651c-3.052-2.294-6.163-4.5-9.283-6.7-4.795-3.395-9.52-6.869-14.187-10.437l-1.716-1.303c-1.323-1.02-2.619-2.073-3.909-3.134v-1z" fill="#d7a01e"/><path d="M192 47c2 1 2 1 2.85 3.059l.849 2.734.966 3.069 1.022 3.326 2.145 6.852 1.092 3.517 3.087 9.718.952 2.96 1.777 5.507c1.616 5.051 3.03 10.099 4.259 15.259l-3.094-.496c-6.445-.806-12.923-.609-19.406-.566l-3.937.014L175 102c.588-5.223 1.82-9.926 3.582-14.883l.774-2.231 2.456-7.012 3.207-9.195.78-2.239c2.227-6.433 4.263-12.913 6.2-19.44z" fill="#f9d601"/><path d="M199 131l2.473.02c11.803.578 23.263 8.957 31.527 16.98 3.593 3.982 6.354 8.335 9 13l1.66 2.875c5.404 11.319 5.91 27.188 1.902 39.02-6.234 15.51-16.547 27.693-31.805 34.729-12.888 5.394-29.08 6.076-42.132.814-5.862-2.772-10.885-6.022-15.625-10.437l-2.215-2.047c-3.482-3.349-6.702-6.527-8.785-10.953v-2h-2l-2.437-7.187-.697-2.041c-4.867-14.46-4.042-27.909 2.135-41.771 3.653-6.967 8.038-12.866 14-18l1.832-1.582C170.245 132.432 183.513 130.471 199 131zm-48 22c-9.658 12.02-12.222 25.565-11.29 40.593C141.356 207.252 150.472 220.58 161 229c13.644 8.802 26.502 10.633 42.527 8.539 13.422-2.998 24.816-10.599 32.348-22.102 2.426-4.05 4.45-8.029 6.125-12.437l1.058-2.366c1.006-2.812 1.2-4.931 1.208-7.908l.008-3-.023-3.102.023-3.078c-.035-13.321-5.036-24.851-14.273-34.547-24.137-21.946-57.243-19.175-79 4z" fill="#fcf5d9"/><path d="M197 146h3.938c9.323 1.382 19.481 9.729 25.063 17 6.76 11.369 8.234 24.626 5 37.563-4.14 11.138-13.764 18.547-24.043 23.676-8.349 3.25-20.555 3.634-29.004.445-12.29-5.501-19.946-14.561-24.828-26.996-2.97-10.101-1.49-20.26 2.875-29.687 6.05-10.94 15.021-17.885 26.902-21.594 4.631-.897 9.404-.516 14.098-.406zm-33.922 15.984c-7.021 8.69-9.085 20.083-8.078 31.016 2.433 10.669 8.934 19.856 18 26 9.267 4.985 18.704 6.631 29 3.875 11.609-3.948 18.785-10.668 24.938-21.187 3.576-9.045 3.508-21.603.063-30.687-5.191-9.889-13.294-17.542-24-21-15.469-3.736-28.937.642-39.922 11.984z" fill="#fdf6d7"/><path d="M168 123c-.659 4.348-2.213 7.996-4 12l-.711 2.371c-1.753 3.574-4.487 5.679-7.477 8.191-7.61 6.684-12.172 13.931-15.812 23.438-4.318-.508-8.033-1.197-12-3 3.802-16.692 15.04-28.774 28.887-38.09C164.89 123 164.89 123 168 123z" fill="#d8a425"/><path d="M213 107c4.923-.553 8.51 1.409 12.75 3.625l2.161 1.112C241.609 118.885 253.006 128.292 262 141v2c-6.209.897-11.742 1.662-16.992-2.203-1.832-1.944-3.606-3.892-5.359-5.902-5.314-5.808-11.973-9.197-19.148-12.207-2.991-1.42-4.222-2.165-5.789-5.113-1.12-3.613-1.712-6.792-1.712-10.575zm-40-1l-1.437 5.313-.809 2.988L169 120l-7.25 3.5c-8.433 3.968-18.182 9.632-23.156 17.813C137 143 137 143 133.645 143.391l-3.832-.141-3.855-.109L123 143c1.434-4.499 3.932-7.507 7.125-10.875l1.496-1.598c3.903-4.123 7.904-8.023 12.379-11.527l1.895-1.508C152.839 112.42 164.273 106 173 106z" fill="#830908"/><path d="M178.632 254.692c4.6.599 9.237.451 13.868.433l3.012.012c4.382-.006 8.52-.085 12.832-.891 4.622-.311 6.112.812 9.656 3.691l2.875 2.277L223 262c-7.007 7.007-20.907 6.417-30.062 6.438-10.541-.084-21.457-.27-30.937-5.437 2.264-2.445 4.674-4.702 7.25-6.812l1.578-1.332c2.776-1.093 4.911-.623 7.804-.164z" fill="#840b09"/><path d="M110 181c4.461 2.17 8.635 4.276 12 8 .916 2.661 1.258 5.132 1.582 7.926 1.083 7.963 3.741 18.872 9.168 25.074 1.25 2 1.25 2 1.125 5.313-.922 3.886-2.183 7.082-3.875 10.688-4.195-1.398-5.326-4.356-7.437-8l-1.158-1.926c-4.717-7.993-7.928-15.754-9.654-24.887l-.515-2.63c-1.212-6.553-1.723-12.891-1.235-19.558z" fill="#830908"/><path d="M274 182c1.056 20.061-3.562 40.322-17 56h-3l-1.562-5.187-.879-2.918c-.593-3.073-.469-4.921.441-7.895l1.813-2.562c4.773-6.813 6.178-15.191 7.375-23.25.989-5.414 2.017-8.186 6.375-11.625C271.474 182 271.474 182 274 182z" fill="#820605"/><path d="M223 231c3.471 1.409 4.881 2.906 6.75 6.125l1.297 2.195L232 241c-14.532 9.276-31.826 15.93-49.367 12.543C180.688 253 180.688 253 178 252c1.627-1.729 3.275-3.372 5-5l1.691-1.633c4.921-4.253 8.491-4.757 14.871-4.969 4.268-.495 7.939-1.749 11.938-3.273l2.068-.779c3.527-1.393 6.538-2.88 9.432-5.346z" fill="#d9a425"/><path d="M263.766 143.684L265 146l1.246 2.27c6.999 14.939 8.981 29.414 8.754 45.73h-1v-12l-4.875 3.25-2.742 1.828c-2.4 1.936-3.144 3.185-4.383 5.922l-.078-3.883c-.435-14.958-2.109-29.958-11.574-42.266C249 145 249 145 249 143l6.313-.75 3.551-.422c3.137.172 3.137.172 4.902 1.855z" fill="#d8a32b"/><path d="M250 225c3.094 3.094 3.937 6.552 4.125 10.875L254 238l2 1c-8.803 9.365-18.364 19.132-31 23-5.267.135-9.103-3.838-13-7 2.155-2.383 3.125-3.042 6.313-4.125C230.871 246.411 243.499 236.639 250 225z" fill="#d9a524"/><path d="M134 226c2.582 2.508 4.898 4.864 7.063 7.75 7.947 9.702 20.258 16.215 31.938 20.25-3.455 3.769-7.013 7.428-12 9-2.96-.863-4.709-1.612-7.25-3.187l-1.967-1.141c-6.09-3.635-11.622-7.803-16.783-12.672l-2.184-1.926c-1.979-2.055-3.063-3.314-3.816-6.074 1.042-4.355 2.829-8.099 5-12z" fill="#d9a425"/><path d="M266 143h59v2l-2.045.478c-8.214 1.981-16.257 4.375-24.312 6.911l-6.502 2.027-4.172 1.307-3.768 1.18c-3.09.969-3.09.969-5.387 2.24C277 160 277 160 273 160l-2.375-5.687-1.336-3.199L266 143z" fill="#f8d501"/><path d="M191.125 103.813l2.813-.002c6.875.053 13.347.632 20.062 2.189l.684 5.664c.378 2.79.849 5.56 1.316 8.336l-2.181-.645c-7.62-2.1-14.562-2.789-22.444-2.667l-3.195-.01c-6.613.045-12.754.758-19.18 2.322l1.313-5.312.738-2.988c.99-2.816 1.501-4.029 3.949-5.699 5.25-1.389 10.727-1.191 16.125-1.187z" fill="#fcdc06"/><path d="M256 242c1.826 3.386 3.039 6.852 4.25 10.5l.644 1.939c2.129 6.488 4.068 13.033 5.962 19.594 1.081 3.689 2.202 7.243 3.78 10.752 1.228 2.895 1.812 5.051 2.051 8.152l.199 2.34L273 297l-1-2h-2l-1.582-2.93c-2.671-4.671-5.877-8.9-9.105-13.195l-3.734-5.039-1.838-2.481-7.178-9.854-2.184-3.031L243 256c1.129-3.388 2.123-4.197 4.813-6.437 2.855-2.419 5.593-4.86 8.188-7.562z" fill="#f9d602"/><path d="M122 142l14 1-2.75 4.938C125.883 161.51 122.602 173.61 122 189l-4.375-2.875-2.461-1.617C113 183 113 183 111 181c-1.177-14.359 4.71-26.525 11-39z" fill="#d9a425"/><path d="M63 145c3.5.635 6.776 1.521 10.141 2.672l2.972 1.008 3.137 1.071c8.203 2.773 16.417 5.425 24.747 7.79 4.833 1.375 4.833 1.375 7.003 2.46l-.437 4.438-.246 2.496C110 169 110 169 109 170c-.231 1.347-.412 2.704-.562 4.063L108 178c-4.882-1.574-8.44-4.402-12.437-7.5l-4.281-3.262-2.168-1.65c-3.141-2.361-6.341-4.634-9.551-6.901C64.503 148.007 64.503 148.007 63 145z" fill="#f9d701"/><path d="M142 256c3.896 1.489 7.591 3.244 11.313 5.125l3.238 1.633L159 264c-4.012 4.288-8.399 7.617-13.187 11l-4.805 3.426-2.491 1.772-7.524 5.47-2.441 1.787-4.625 3.406c-3.527 2.573-6.719 4.791-10.927 6.139 3.958-6.54 8.211-12.698 12.933-18.71 5.639-7.224 10.829-14.773 16.067-22.29z" fill="#fbd901"/><path d="M192 47c2 1 2 1 2.85 3.059l.849 2.734.966 3.069 1.022 3.326 2.145 6.852 1.092 3.517 3.087 9.718.952 2.96 1.777 5.507.814 2.544.703 2.184C209.279 95.95 210.12 99.481 211 103l-18-2-1-54z" fill="#d59e1f"/><path d="M109 329c4.632.926 6.423 1.646 10.125 4.25l2.57 1.766c3.404 2.931 4.977 5.813 6.18 10.109 1.433 3.663 2.58 4.257 6.125 5.875 2.1.785 4.201 1.546 6.328 2.254C142 354 142 354 143 356l-4.25-.437-2.391-.246C134 355 134 355 131.922 354.477c-3.635-.901-7.482-1.22-10.859.523-5.26 2.55-10.563 1.03-15.812-.75-4.005-1.442-6.4-3.08-9.25-6.25 4.982-1.916 9.727-2.555 15-3l-3-3 1-2 5 2-5-13z" fill="#860d0d"/><path d="M207.328 163.23c5.463 3.618 9.153 8.137 11.203 14.398 1.505 7.612 1.568 15.627-2.531 22.371-4.421 6.349-9.498 10.778-17 13-7.613 1.055-14.493.938-21.035-3.387-6.741-5.535-11.223-11.443-12.277-20.211-.352-7.826 1.244-14.391 6.043-20.664 10.272-11.092 22.417-12.798 35.598-5.508zM173 172c-4.396 6.098-4.846 12.655-4 20 2.162 6.777 5.836 12.32 12 16 6.55 2.402 14.593 3.699 21.27 1.125 5.836-3.392 11.296-8.734 13.73-15.125.356-3.532.356-3.532.313-7.375l.051-3.898c-.636-6.527-3.491-10.504-8.363-14.727-12.723-8.997-24.311-7.157-35 4z" fill="#fbf3d3"/><path d="M240.591 115.551C255.544 126.12 266.561 139.767 273 157l1.188 3.031c2.934 8.884 3.2 17.416 3.25 26.719l.031 3.791-.034 3.569-.03 3.218c-.449 2.971-1.061 3.872-3.404 5.673l.032-1.813c.438-28.88-3.941-52.37-24.563-73.82-17.726-17.048-39.088-22.8-63.219-22.492l-4.172.027L172 105l2-1v-2c22.689-5.057 47.487.706 66.591 13.551z" fill="#eddcdc"/><path d="M273 200l3 2c-3.871 16.471-9.616 29.207-21 42l-2.086 2.375c-12.808 13.712-32.647 23.735-51.47 24.765-13.413.45-25.642.134-38.444-4.14 3.434-2.156 5.23-2.004 9.125-1.125 24.812 4.229 47.661.84 68.5-13.625 18.03-13.73 27.009-30.48 32.375-52.25z" fill="#fcf5db"/><path d="M181.188 4.813l2.73.082L186 5v5l-3-1V7l-6 1v5l1.934 1.059 2.504 1.379 2.496 1.371C186 18 186 18 187 19c.384 3.459.511 5.307-1.59 8.156-4.063 3.108-8.104 2.558-13.051 2.445-3.64-.652-4.722-1.205-6.984-4.039l-1.164-1.934c-1.293-2.098-1.293-2.098-5.211-2.629l3 10c-1 1-1 1-4.062 1.063L155 32l-.148-3.324-.227-4.363-.094-2.186c-.272-4.96-1.3-8.664-3.531-13.127 3.252-.963 6.239-1.165 9.625-1.187l2.914-.043C166 8 166 8 168 10c.344 3.952.089 6.605-2 10l6 6 1-3h3l1 3h5l1-5-1.68-1.023-2.195-1.352-2.18-1.336C175 16 175 16 173 14c-.555-5.22-.555-5.22 1.195-7.68 2.432-1.779 4.013-1.624 6.992-1.508z" fill="#9c3c3c"/><path d="M227 143c15.844-1.509 15.844-1.509 20.578 1.805 1.884 2.657 3.171 5.188 4.422 8.195l1.508 3.336A175.28 175.28 0 0 1 257 165c-2.722 2.722-5.295 3.106-9 4h-4l-.559-1.766c-3.342-9.447-9.234-17.322-16.441-24.234z" fill="#fcdb07"/><path d="M244 203h1l.367 1.723c.809 3.726 1.65 7.33 2.82 10.965.922 3.757.849 5.596-.187 9.313-1.74 2.252-3.393 4.183-5.375 6.188l-1.5 1.576L237 237l-1.602 1.926C234 240 234 240 231.984 239.91c-2.427-1.113-3.281-2.253-4.734-4.473l-1.297-1.941L225 232c1.11-2.996 2.2-4.159 4.75-6.187 7.192-5.757 10.751-14.529 14.25-22.812z" fill="#fcdc08"/><path d="M193 134v12l-5.312.688c-5.703.919-10.307 2.726-15.41 5.387C170 153 170 153 167 152c-1.422-1.523-1.422-1.523-2.75-3.375l-1.359-1.836C162 145 162 145 163 142c9.182-6.034 19.117-8.484 30-8z" fill="#fede06"/><path d="M154 199l3.516 5.453C160.99 210.056 164.56 215.127 169 220l-6 9c-10.478-5.239-15.692-14.568-20-25v-2l11-3z" fill="#daa724"/><path d="M160 231l1.582.953c9.51 5.529 18.38 8.62 29.418 9.047a119.07 119.07 0 0 1-5 5l-1.797 1.738c-4.75 4.133-4.75 4.133-8.227 4.441-5.134-.897-9.811-3.373-14.477-5.617l-1.891-.909c-4.487-2.287-4.487-2.287-5.609-5.654 1.215-2.262 1.215-2.262 2.938-4.687l1.715-2.449L160 231z" fill="#fddd07"/><path d="M142 169l1 2c2.052.652 2.052.652 4.438 1.063 4.395.854 4.395.854 6.563 1.938l-.492 2.598c-1.152 7.718-.935 15.732.492 23.402-4.266 1.138-7.565 2-12 2-2.134-5.234-2.302-9.821-2.25-15.375l-.023-2.461c.017-5.375.778-10.001 2.273-15.164z" fill="#fede08"/><path d="M193 119v12l-3.516.48c-9.529 1.392-17.794 3.208-26.484 7.52.409-6.27 2-12.04 6-17 7.214-4.056 16.008-3.258 24-3z" fill="#fddc06"/><path d="M243 170c1.247 5.518 1.184 10.867 1.188 16.5l.037 3.129.006 3.027.012 2.744c-.266 2.847-1.064 5.008-2.243 7.6l-4.375-.937-2.461-.527C233 201 233 201 231 200v-26c11-4 11-4 12-4z" fill="#dba826"/><path d="M128 166l12 3-1 3c-2.294 9.111-1.532 19.81 0 29-4.785-2.637-4.785-2.637-7-4l-1.786-.95c-4.852-2.888-4.852-2.888-5.824-6.012-.19-2.32-.149-4.527-.014-6.85l.02-2.33c.158-5.501 1.451-9.806 3.605-14.857z" fill="#fddc06"/><path d="M203 350c2.527 1.917 2.972 2.915 4 6 1.059 12.318 1.059 12.318-2.125 17.375-3.405 1.924-5.038 2.441-8.875 1.625-4.287-4.287-5.172-7.96-5.312-13.875.025-4.057.096-5.757 2.188-9.312 3.676-3.135 5.464-2.954 10.125-1.812z" fill="#8b1a1a"/><path d="M193 134c10.861.44 21.638 2.656 30 10-1.652 3.579-3.783 6.748-6 10-2.976-1.082-5.395-2.258-8.062-4-4.907-2.923-10.358-3.248-15.937-4v-12z" fill="#daa623"/><path d="M230 198l1 2c2.349.689 2.349.689 5.063 1.125l2.785.508L241 202c.705 7.988-5.771 14.716-10.625 20.563-2.802 3.287-3.97 3.676-8.375 5.438l-6-9 2.063-1.937c5.592-5.64 10.417-11.124 11.938-19.062z" fill="#fede07"/><path d="M217 219l3.125 4.5 1.633 2.531L223 228c-8.918 7.577-18.486 9.796-30 10v-11l2.781-.734C202.123 224.534 210.918 219 217 219z" fill="#daa624"/><path d="M250 225c3.094 3.094 3.937 6.552 4.125 10.875L254 238l2 1-5.75 5.938-1.633 1.709-1.602 1.631-1.46 1.508c-1.813 1.416-3.312 1.807-5.556 2.215l-3-3.875-1.687-2.18C234 244 234 244 234 242c1.504-1.445 1.504-1.445 3.563-3.125 4.631-3.931 9.684-8.369 12.438-13.875z" fill="#fcdb03"/><path d="M263.75 143.645l3.938 7.793 1.324 2.809C270 157 270 157 270 162l-11 3-1.625-4.937c-1.79-4.985-4.087-9.02-7.203-13.285C249 145 249 145 249 143l6.313-.75 3.551-.422C262 142 262 142 263.75 143.645z" fill="#fcdb08"/><path d="M151 243l2.09 1.172c5.286 2.93 10.543 5.664 16.133 7.969C171 253 171 253 173 255l-11 8-16-8c0-4.14.324-4.986 2.5-8.25l1.406-2.141L151 243z" fill="#fddc07"/><path d="M183 349c2.875 1.25 2.875 1.25 5 4 .912 5.466.919 11.038-1.625 16.063-2.611 3.23-4.479 4.558-8.375 5.938h-4l1-3 2.938-.812L181 370c1.452-3.018 1.452-3.018 2-6l-1.898.105-2.477.082-2.461.105L174 364c-2.444-3.666-2.832-6.739-2-11 3.272-3.849 6.033-4.828 11-4z" fill="#8c1c1c"/><path d="M153 182c2.149 3.223 2.365 4.794 2.813 8.563 1.61 10.2 6.313 18.673 14.188 25.438 9.404 5.813 18.507 8.554 29.52 6.539 8.471-2.268 15.878-6.817 22.48-12.539l1 3c-10.173 9.86-19.806 13.376-33.837 13.526-9.831-.214-17.888-4.181-25.163-10.838-7.008-7.877-11.325-16.443-11.125-27.062l.055-3.773L153 182z" fill="#f8f0dc"/><path d="M168 123c-.659 4.348-2.213 7.996-4 12l-1 2.75c-1.074 2.417-1.962 3.587-4 5.25-1.901.341-1.901.341-4.012.293l-2.295-.029-2.381-.076-2.416-.041L142 143c1.343-6.298 6.525-9.741 11.764-13.146C164.946 123 164.946 123 168 123z" fill="#860e09"/><path d="M193 104c7.227-.241 13.903.655 21 2l.684 5.664c.378 2.79.843 5.561 1.316 8.336l-2.238-.621c-6.967-1.85-13.569-2.906-20.762-3.379v-12z" fill="#d8a424"/><path d="M114 159l1 3c2.079.694 2.079.694 4.5 1 2.469.375 2.469.375 4.5 1 1.327 3.982.159 5.994-1 10-.276 2.64-.484 5.287-.625 7.938l-.117 2.072L122 189l-4.375-2.875-2.461-1.617C113 183 113 183 111 181c-.631-7.696 1.072-14.575 3-22z" fill="#fcdc08"/><path d="M218 124c10.239 3.008 19.14 9.91 26 18v1l-8.75.25-2.5.102c-6.08.098-6.08.098-9.187-1.988-1.815-2.745-2.832-5.285-3.812-8.426l-1.016-3.16C218 127 218 127 218 124z" fill="#830906"/><path d="M125 192c13.574 6.431 13.574 6.431 15.855 12.141.235 6.225-2.491 12.212-4.855 17.859-2.997-2.534-4.126-5.263-5.562-8.875l-1.254-3.117L128 207l-1.113-2.551c-.957-2.644-1.288-4.964-1.512-7.762l-.227-2.676L125 192z" fill="#840b06"/><path d="M169 157c4.206 1.502 5.739 4.286 8 8l-1.426 1.539c-3.592 3.971-6.476 7.525-8.574 12.461l-10-3c2.014-8.055 4.928-14.285 12-19z" fill="#daa723"/><path d="M196 242c4.414 2.864 8.342 6.226 12 10-9.867 2.495-20.295 3.611-30 0 11.01-11.678 11.01-11.678 18-10z" fill="#860f09"/><path d="M373 161h2l.188 6.813.105 3.832C375 175 375 175 373.672 176.926c-2.631 1.691-4.624 1.447-7.672 1.074-2.375-1.062-2.375-1.062-4-3-.25-3.687-.25-3.687 0-7l-3.937.375-2.215.211L354 169l-1 2h-2v-7l2.02.035c6.723.066 13.298-.311 19.98-1.035v-2z" fill="#9a3939"/><path d="M353 181l1 2 9.875-.437 2.84-.119 2.715-.127 2.507-.111c2.125-.088 2.125-.088 4.063-1.205l.188 6.875.105 3.867L376 195c-3.704 2.469-5.621 2.469-10 2-1.937-1.625-1.937-1.625-3-4-.187-3.25-.187-3.25 0-6h-9l-1 2v-8z" fill="#881515"/><path d="M259 192c-.384 11.176-3.227 19.515-9 29-2.113-2.113-2.667-3.347-3.625-6.125l-.789-2.195c-.797-3.645-1.428-7.019-.586-10.68 1.801-2.354 3.985-3.867 6.438-5.5l1.854-1.336C257.737 192 257.737 192 259 192z" fill="#850b05"/><path d="M157 176l4.438.813 2.496.457L166 178c1.187 3.56 1.097 6.438 1.063 10.188l-.027 3.855L167 195l-1.934.586-2.504.789-2.496.773c-2.244.66-2.244.66-3.066 2.852-2.785-7.832-3.358-16.235 0-24z" fill="#fede0b"/><path d="M30 248c1.938 1.875 1.938 1.875 3 4v3l2.313-1C38 253 38 253 41 253v-3h2l1 6-2.633.77-3.492 1.043-3.445 1.02C30.118 260.3 26.25 261.75 23 265c-2.921-5.02-4.938-9.022-4-15 3.108-3.978 6.448-3.242 11-2z" fill="#9f4141"/><path d="M168 196c1.5 1.926 1.5 1.926 3 4.313 1.899 2.991 3.84 5.878 6 8.688l-5 8c-6.621-3.311-11.273-9.101-14-16v-3c6.625-3.125 6.625-3.125 10-2z" fill="#daa725"/><path d="M342 84c6.786 6.607 6.786 6.607 7.375 10.438C349 97 349 97 347.375 99.313c-3.081 2.189-4.667 2.305-8.375 1.688-2.375-1.875-2.375-1.875-4-4v-2l-3.375 1.875-1.898 1.055c-1.888 1.079-1.888 1.079-3.727 3.07l-2-5 2.938-1.625c3.863-2.192 7.499-4.668 11.145-7.203C340 86 340 86 342 86v-2z" fill="#942d2d"/><path d="M227 175c2.194 4.388 2.24 6.664 2.188 11.5l-.02 3.969C229 194 229 194 228 198l-10-2v-18l9-3z" fill="#dba723"/><path d="M214 156c6.332 4.939 12.407 10.811 14 19l-3.875 1.5-2.18.844C220 178 220 178 218 178c-1.367-2.047-1.367-2.047-2.875-4.75-2.028-3.632-4.068-6.418-7.125-9.25l6-8z" fill="#fddd08"/><path d="M27.563 227.688l2.316-.051c2.641.452 3.539 1.231 5.121 3.363-.14 2.794-.582 4.435-2.25 6.688-4.714 3.535-9.049 3.772-14.75 3.313-2-1.187-2-1.187-3-3-.437-2.5-.437-2.5 0-5 3.603-3.475 7.57-5.287 12.563-5.312z" fill="#f7f0f0"/><path d="M193 149c7.843.336 13.213 2.087 20 6 0 4.681-.996 5.621-4 9l-1.723-.586c-4.731-1.595-9.465-3.083-14.277-4.414v-10z" fill="#daa625"/><path d="M196 162l-3 1v23c-3.663-3.663-6.721-7.034-9.812-11.125l-2.395-3.133C179 169 179 169 179 166c5.995-2.602 10.33-4.126 17-4z" fill="#fbda07"/><path d="M218 196l10 2c-2.929 6.289-5.747 12.307-11 17l-3 1-6-8 1.426-1.609 1.887-2.141 1.863-2.109c1.688-1.981 3.262-4.058 4.824-6.141z" fill="#fede0a"/><path d="M210 210c2.313 2.375 2.313 2.375 4 5-1 3-1 3-3.187 4.387-6.311 2.919-10.863 4.183-17.812 3.613v-9l6.25-2.562 3.516-1.441c4.346-1.339 4.346-1.339 7.234.004z" fill="#daa724"/><path d="M352 208l2 1v2l21 1v5c-5.551 2.927-11.001 5.167-17 7 2.884 1.442 5.417 1.094 8.625 1.063l3.602-.027L373 225v6h-2v-2l-2.055-.148c-6.438-.517-12.643-1.443-18.945-2.852v-3l5.688-2.375 3.199-1.336L367 216c-1.941-1.941-5.473-1.399-8.062-1.562l-3.91-.254L352 214v-6z" fill="#912626"/><path d="M352 101l3 1 1 5-8 2 1 4 1 5 2.875-1.5C356 115 356 115 358 115l1-3 3 6-1.617.48c-5.362 1.679-10.243 3.827-15.219 6.434C343 126 343 126 340 127l-2-5 9-3-2-7c-3.958.565-6.666 1.809-10 4l-2-5 1.906-.734c9.816-3.102 9.816-3.102 17.094-9.266z" fill="#8f2323"/><path d="M252.438 16.813C255 17 255 17 257 19c.659 6.366-.543 10.626-4 16l-2 2c-3.297-.33-4.623-.623-7-3-.825-6.837.882-10.586 5-16 1-1 1-1 3.438-1.187z" fill="#f8f2f2"/><path d="M174 104l1 2-2.422.664c-20.347 5.875-37.667 17.369-49.07 35.465L122 144h-3c5.898-16.663 23.298-28.463 38.313-36.375 11.824-5.518 11.824-5.518 16.688-3.625z" fill="#ead7d6"/><path d="M25 110h2v3l1.793.586c6.768 2.23 6.768 2.23 9.895 3.539 2.742 1.037 5.416 1.471 8.313 1.875l-1 6h-2l-1.187-1.375c-2.614-2.343-5.453-2.801-8.812-3.625l-1 7c2.938 2.503 5.179 3.469 9 4l-1 4c-7.394-2.159-14.704-4.53-22-7 .375-2.437.375-2.437 1-5l2-1 1 2c2.626 1.575 3.871 2 7 2l3-8-9-2 1-6z" fill="#983535"/><path d="M37 89h2v3l2.074.773c3.375 1.415 6.526 3.099 9.738 4.852l1.811.984L57 101l-1 3-21 1 5.75 2.938 3.234 1.652c2.4 1.122 4.434 1.915 7.016 2.41l-2 4-2.852-1.68-3.773-2.195-1.871-1.105c-3.745-2.168-7.322-3.797-11.504-5.02.875-3.875.875-3.875 2-5 1.34-.156 2.688-.25 4.035-.316l2.451-.127 2.576-.119 2.588-.131L49 100l-4.75-2.437-2.672-1.371C39.358 95.165 37.386 94.485 35 94l2-5z" fill="#8f2222"/><path d="M98 31l1.063 2.875c1.845 4.377 4.584 8.002 7.414 11.793 1.433 2.193 2.089 3.775 2.523 6.332-5.203-.575-9.24-2.294-13.875-4.562l-2.086-.998L88 44l4.375 5.875 1.25 1.684c1.7 2.276 3.363 4.429 5.375 6.441l-4 2-1.625-2.937a213.79 213.79 0 0 0-5.437-8.937l-1.473-2.305C85.039 43.713 85.039 43.713 82 43l1-3c2.303-1.004 3.483-1.187 5.859-.328l1.891 1.078c3.985 2.157 7.984 3.726 12.25 5.25l-3.312-4.937-1.863-2.777C96.134 35.742 96.134 35.742 93 35v-2c3-2 3-2 5-2z" fill="#942b2b"/><path d="M218 347h3c.847 5.081 1.09 9.848 1 15l5-2v4h-3l1 8h-4v-7l-11 1c.93-4.648 2.412-8.178 4.563-12.312l.998-1.955L218 347z" fill="#891717"/><path d="M177 168c4.136 1.527 6.237 4.496 8.75 7.938l1.246 1.631C190 181.615 190 181.615 190 185c-5.017.309-8.693-.733-13.375-2.5l-1.941-.723L170 180c.527-3.862 1.426-5.951 4.063-8.812l1.66-1.832L177 168z" fill="#daa721"/><path d="M307 46c3.161 1.37 3.993 1.989 6 5l-2.312.688c-3.235 1.58-4.104 3.145-5.687 6.313l1.813.875C309 60 309 60 312 62c2.526-2.363 3.888-3.665 5-7 3.875 1.75 3.875 1.75 5 4l-2.207 1.191c-3.025 1.959-5.095 4.053-7.48 6.746l-2.324 2.59c-1.708 2.124-2.91 3.987-3.988 6.473-2-1.375-2-1.375-4-3v-2l3-1c3.033-3.055 3.033-3.055 4-7-1.961-1.389-3.962-2.726-6-4-2.648 2.578-4.944 4.916-7 8l-3-4a141.4 141.4 0 0 1 5-5h2l.75-1.75C302 54 302 54 304.063 52c2.014-2.079 2.536-3.188 2.938-6z" fill="#963030"/><path d="M206 168c4.819 1.678 6.545 3.455 9 8v4l-8.812 3-2.525.867-2.432.82-2.238.762C197 186 197 186 194 186c1.814-4.128 4.491-7.621 7.125-11.25l1.418-1.969L206 168z" fill="#fcdb05"/><path d="M191 188c-1.471 4.357-3.831 7.719-6.625 11.313l-1.273 1.666L180 205c-4.24-.816-5.556-2.416-8-6-.692-1.656-1.364-3.322-2-5l6.75-2.437 1.922-.697C186.645 188 186.645 188 191 188z" fill="#daa720"/><path d="M193 163c7.389 0 8.39.337 14 4-3.928 6.427-7.851 12.483-13 18h-1v-22z" fill="#daa520"/><path d="M192 188h1v22c-11.25-1.125-11.25-1.125-15-4 4.507-6.111 9.052-12.237 14-18z" fill="#fbda04"/><path d="M255 15c2.786 1.368 3.864 2.551 6 5 1.056 6.338-1.141 11.211-4.625 16.438-3.669 2.414-7.118 2.297-11.375 1.563-2.562-1.375-2.562-1.375-4-4-.827-5.085-.605-8.853 1.813-13.437L245 18l1.313-1.875c2.952-1.968 5.255-1.59 8.688-1.125zm-7.187 4.25L246 22l-1.25 1.813c-1.214 3.54-1.047 6.445-.75 10.188 1.005 2.175 1.005 2.175 3 3 2.524.23 2.524.23 5-1 4.509-5.762 5.337-9.921 5-17-1.821-2.199-1.821-2.199-4.375-2.437-2.832.205-2.832.205-4.812 2.688z" fill="#963030"/><path d="M223 265c-2.76 1.84-4.684 2.645-7.812 3.563l-2.52.754c-15.993 4.098-34.102 2.88-49.668-2.316 3.434-2.156 5.23-2.004 9.125-1.125 7.005 1.218 13.897 1.394 21 1.438l3.321.052c6.488-.003 12.06-.748 18.24-2.75 3.001-.797 5.358-.494 8.314.385z" fill="#f1e5e5"/><path d="M193 189h2c1.329 1.469 1.329 1.469 2.82 3.5l1.621 2.188 1.684 2.313 1.707 2.313L207 205c-2.24 2.297-3.944 3.897-7 5h-7v-21z" fill="#daa621"/><path d="M197 351c2.625.375 2.625.375 5 1 2.18 6.403 3.139 12.513 1 19.063L202 373h-5c-2.514-3.811-2.297-7.726-2.25-12.125l-.023-2.207c.02-5.415.02-5.415 2.273-7.668z" fill="#f6eeee"/><path d="M31 225c2.985 1.305 3.856 2.349 6 5 .688 3.5.688 3.5 0 7-3.427 4.406-6.66 6.494-12.141 7.324-4.584.342-6.282.159-9.922-2.887-2.26-4.01-2.841-5.919-1.937-10.437 5.014-5.929 10.606-6.984 18-6zm-16 8c-.792 3.023-.483 4.124 1 6.813 3.201 1.901 6.428 1.695 10 1.188 3.45-1.367 6.973-2.78 9-6-.075-3.12-.075-3.12-1-6-6.55-3.275-13.975-.879-19 4z" fill="#9a3838"/><path d="M170 180c6.975 1.237 13.401 3.459 20 6v2l-1.906.551c-4.256 1.25-8.454 2.539-12.594 4.137C172 194 172 194 170 194c-1.312-2.623-1.133-4.637-1.125-7.562l-.008-3.004C169 181 169 181 170 180z" fill="#fcdb02"/><path d="M12 152l5 1v2h-4l-1 8 9 1-2-7h6v2h-2l-1 6 10 1-.375-3.937-.211-2.215L31 158l-2-1v-2h5l-1 16h-2v-2l-22-1c1.125-11.25 1.125-11.25 3-16z" fill="#8d1f1f"/><path d="M194 188c7.347 1.211 14.072 3.287 21 6-1.277 4.993-3.173 7.576-7 11-3.99-1.521-5.701-3.937-8.125-7.375l-2.07-2.898c-1.46-2.206-2.702-4.328-3.805-6.727z" fill="#fcdb02"/><path d="M147 11l1 4h-10l1 8 6-1v-3h2l1 6-7-1 2 9 7-1v-5h3v6l-4.187 1.438-2.355.809c-2.47.758-4.917 1.289-7.457 1.754l-.586-2.852-.789-3.773-.773-3.727c-.775-3.322-1.603-6.474-2.852-9.648l-2-1v-2l4.688-1.5 2.637-.844c2.67-.655 4.94-.775 7.676-.656z" fill="#840d0d"/><path d="M265 145c3 1 3 1 4.246 2.977L273 157l1.211 3.082c2.911 8.868 3.177 17.387 3.227 26.668l.031 3.791-.034 3.569-.03 3.218c-.449 2.971-1.061 3.872-3.404 5.673l.032-1.813c.266-17.532-.05-35.435-8.188-51.464C265 148 265 148 265 145z" fill="#f9f1d9"/><path d="M325 63h2l4.125 5 2.195 2.813L335 73l-2 4h-2l-1-7c-1.837-.772-1.837-.772-4-1-1.854 1.103-1.854 1.103-3 3v4h4c-.812 1.938-.812 1.938-2 4l-3 1-1-5c-2.929.628-5.361 1.586-8 3 1.009 2.575 1.009 2.575 3 5 3.599.896 3.599.896 7 1-1.312 2-1.312 2-3 4h-3c-2.043-2.187-2.043-2.187-4.187-5l-2.168-2.812L309 79c3.124-3.225 6.363-6.294 9.688-9.312l2.324-2.113C323 66 323 66 325 66v-3z" fill="#8d1e1e"/><path d="M77 45l1.5 1.938c2.347 2.969 2.347 2.969 4.547 5.152 5.748 5.962 5.748 5.962 6.766 10.66C88.772 66.913 87.478 68.505 84 71c-2.875.75-2.875.75-6 0-3.599-2.809-6.396-6.223-9.187-9.812C66.985 58.982 65.639 58.037 63 57l6-4 .766 2.199c1.327 3.01 2.849 5.118 4.984 7.613l1.984 2.395C79.65 67.514 81.372 67.421 85 67c1.225-1.031 1.225-1.031 1.363-3.207-.518-3.979-2.436-5.607-5.176-8.48l-2.707-2.887C76.051 49.901 76.051 49.901 73 48l4-3z" fill="#932b2b"/><path d="M348 230h2l1 2c1.924.748 1.924.748 4.254 1.289l2.588.664 2.721.672 2.732.695L370 237c-.57 4.97-1.23 9.28-3 14l-5-1v-2l1.938-.625c2.412-1.27 2.412-1.27 2.813-4.5L367 240l-2.312-.437C362 239 362 239 359 238l1 8-6-1v-2l2-1c.656-2.527.656-2.527 1-5l-9-2v8l2 1v2l-5-1c.551-5.239 1.429-9.974 3-15z" fill="#8d1f1f"/><path d="M268 22c3.447.573 6.222 1.439 9.313 3.063l2.113 1.098L281 27l-1 5h-2l-.125-1.812c-.752-2.539-.752-2.539-3.937-3.937L271 25l-2 8 6 1-2 6h-2v-4l-5-1-2 10-6-2v-2h2l.805-2.57c1.24-3.557 2.72-6.896 4.32-10.305l1.633-3.492L268 22z" fill="#902525"/><path d="M120 143c1.38 4.14-.419 6.314-2.25 10-6.717 14.453-7.206 30.289-7.75 46-2.288-3.432-2.257-4.732-2.266-8.77l-.008-3.443.023-3.6-.023-3.564.008-3.455.007-3.148c.281-3.281 1.113-5.943 2.259-9.02l.93-2.93c1.923-5.991 3.966-11.587 7.07-17.07l2-1z" fill="#f9f4ea"/><path d="M129 16v26c-3.988-1.994-5.677-3.585-8.562-6.875l-2.316-2.617C116 30 116 30 114.41 27.805c-1.463-2.066-1.463-2.066-4.41-3.805 4.75-3 4.75-3 7-3l.563 2.5c1.926 4.69 4.978 7.855 8.438 11.5.09-5.118.009-9.954-1-15l-2-2c3.75-2 3.75-2 6-2z" fill="#932a2a"/><path d="M199 5c6.115-.097 11.933.23 18 1v6h-2V8l-5-1v22h-7v-2h2l1-20-4 1-1 3h-2V5z" fill="#973434"/><path d="M219 105v2l-5.687-.437-3.199-.246C207 106 207 106 204.746 105.486c-3.309-.586-6.436-.598-9.797-.584l-1.996.004-6.265.031-4.268.014L172 105l2-1v-2c14.719-3.281 30.793-1.68 45 3z" fill="#f5eacd"/><path d="M289 33c3.89 1.388 6.966 3.215 10.313 5.625l2.676 1.914L304 42c-.312 1.938-.312 1.938-1 4l-3 1-1-5-3-1-.625 2c-1.264 2.759-2.573 4.64-4.437 7-2.308 2.965-3.696 5.141-3.937 9l-6-3v-2l3-1c1.646-2.097 3.148-4.165 4.625-6.375l1.234-1.789c1.763-2.592 3.145-4.848 4.141-7.836l-7 1c.875-3.875.875-3.875 2-5z" fill="#952f2f"/><path d="M343 247l5 1v2l-4 1-1 6c3.815.355 5.442.446 8.5-2 2.5-2 2.5-2 5.625-2.375C360 253 360 253 363 255c.667 6.889.667 6.889-1.5 10.5L360 267l-4-1v-2l4-1v-6c-2.246-.421-2.246-.421-5 0l-2.875 2.563C349 262 349 262 345.25 262c-3.25-1-3.25-1-5.25-4-.507-4.665.309-7.187 3-11z" fill="#912626"/><path d="M193.5 159.563c7.316.14 12.82 2.232 18.348 7.047 6.719 7.198 7.487 14.221 7.258 23.828L219 193h-2l-.078-2.344c-.456-8.382-1.815-13.961-7.234-20.406-7.51-6.288-14.037-7.233-23.687-8.25 2.608-2.608 3.862-2.358 7.5-2.437z" fill="#fbf4d9"/><path d="M17 133l5 1v2l-4 1c-.334 2.874-.334 2.874 0 6 3.212 3.337 6.26 3.463 10.75 3.688l3.547.199L35 147c.685-2.858.685-2.858 1-6l-2-3h5c-.114 4.759-.36 8.078-3.125 12.063-3.683 2.482-5.5 2.541-9.875 1.938-5.078-1.635-8.369-3.263-11-8-.664-4.296-.469-7.297 2-11z" fill="#9e4242"/><path d="M139 140h2c-1.309 3.626-2.926 6.395-5.187 9.5C127.72 162.055 123.84 177.148 124 192h-1c-.835-24.061-.835-24.061 4-34l1.391-2.914c2.912-5.685 6.141-10.516 10.609-15.086z" fill="#f9f2df"/><path d="M249 222h2c-.956 8.53-9.612 15.128-15.906 20.398-6.873 5.257-12.351 8.32-21.094 8.602 3.174-2.56 6.482-4.308 10.125-6.125 9.805-5.237 16.692-12.132 23.281-21.004L249 222z" fill="#fef8d4"/><path d="M8 171h7v3l-4 1-1 5h21v5l-2-1-4.352-.316-2.578-.127-2.695-.119-2.719-.131L10 183c.267 1.985.267 1.985 1 4l3 1v2H8v-19z" fill="#840b0b"/><path d="M8 191l2.02 1.277C16.761 196.285 22.156 197.97 30 198v-2h2v8l-2-1c-8.702-1.123-13.858 2.263-21 7v-5l3.875-2 2.18-1.125C17 201 17 201 19 201v-2l-2.187-.437-5.562-1.125c-2.032-.469-2.032-.469-3.25-.437v-6z" fill="#932a2a"/><path d="M181.188 4.813l2.73.082L186 5v5l-3-1V7l-6 1v5l1.934 1.059 2.504 1.379 2.496 1.371C186 18 186 18 187 19c.263 4.032.294 5.559-2 9-2.602.293-2.602.293-5.625.188l-3.039-.082L174 28l1-4 2 2c2.584.167 2.584.167 5 0l1-5-1.68-1.023-2.195-1.352-2.18-1.336C175 16 175 16 173 14c-.555-5.22-.555-5.22 1.195-7.68 2.432-1.779 4.013-1.624 6.992-1.508z" fill="#952d2d"/><path d="M37 270c4.717 1.348 7.424 3.931 10 8 .88 2.007 1.611 4.02 2.309 6.098.913 2.511 2.23 4.675 3.691 6.902h-2v2l-4-1h3c-1.639-3.368-2.593-4.796-6-6.5-3.584-1.792-4.48-2.819-6-6.5-.513-2.993-.809-5.971-1-9z" fill="#8c1a1a"/><path d="M219 7h6c1 2 1 2 .938 4.938-.208 3.239-.208 3.239 2.063 6.063 2.252-2.688 3.882-4.646 5-8h5v2c-1.426 1.367-1.426 1.367-3.312 2.875-4.967 3.934-4.967 3.934-6.98 9.703l.105 2.672.082 2.703L228 32l-7-1 .98-1.738c2.724-6.043.947-12.461-1.227-18.414-.746-1.895-.746-1.895-1.754-3.848z" fill="#932b2b"/><path d="M56 65l4 2v1l-5 1c-.949 3.213-.949 3.213-1 7 2.407 3.645 4.737 6.668 9 8 2.584.334 2.584.334 5 0 2.35-1.898 2.35-1.898 2.125-5.125L70 76l4 2c-.89 3.558-1.705 5.689-4.25 8.375C66.364 88.376 64.874 88.697 61 88c-4.472-2.327-8.114-5.231-10-10-.506-2.792-.627-5.222 0-8 2.5-3 2.5-3 5-5z" fill="#8f2323"/><path d="M273 200l3 2c-3.022 12.86-6.52 27.061-17 36l-2-2 1.355-1.801C266.153 223.509 269.932 212.699 273 200z" fill="#e6cfcf"/><path d="M122 174c1.887 1.588 2.898 2.502 3.401 4.958l.041 2.21.08 2.459.041 2.561c.218 10.341 2.556 18.449 6.512 28.055L133 217l-1 2h-3l-2.375-7.062-.672-1.99-1.32-4.01c-.568-1.739-1.176-3.464-1.79-5.187-1.182-5.255-1.055-10.322-.969-15.687l.027-3.229L122 174z" fill="#f4e5c3"/><path d="M165 348c-.425 7.867-1.025 15.362-3 23l4 1v1l-4.25-.375-2.391-.211c-2.445-.429-4.208-1.2-6.359-2.414h5l3-19-6 1c3.165-3.466 5.206-4 10-4z" fill="#942d2d"/><path d="M366 133l2 1v4l-8.875 2.5-2.551.723-2.441.684-2.253.635C350 143 350 143 348 143l2 6 5 1v2l-7 1-1.562-5.312-.879-2.988C345 142 345 142 346 139l2.75-.25c5.073-.71 13.569-2.069 17.25-5.75z" fill="#8b1b1b"/><path d="M219 251c-8.53 4.548-17.291 5.451-26.812 5.25l-3.021-.016c-4.821-.051-9.429-.237-14.166-1.234v-3l1.73.219c11.12 1.273 21.1 1.207 31.98-1.66 3.693-.627 6.628-.258 10.289.441z" fill="#f1e5e5"/><path d="M25 206h7c1.005 3.015 1.103 5.042 1.063 8.188l-.027 2.73L33 219l-1.804.244-8.071 1.131-2.84.383-2.715.391-2.507.349c-2.271.364-2.271.364-4.063 2.502l-1-1v-6l21-1-2-7-4-1v-2z" fill="#881515"/><path d="M177 351c3-.375 3-.375 6 0 2.429 3.644 2.162 5.712 2 10-2.763 1.381-4.947 1.191-8 1-2-2-2-2-2.25-4.937C175 354 175 354 177 351z" fill="#f3e8e8"/><path d="M198 159v1l-10 1 1 2-3.5 1.063c-5.707 2.169-10.79 5.666-13.668 11.172-.944 2.402-.944 2.402-1.832 5.766h-3c.757-7.946 5.019-12.535 10.938-17.453 6.453-4.84 12.316-4.925 20.063-4.547z" fill="#faf1c7"/><path d="M87.75 39.75c3.205 1.233 6.21 2.658 9.25 4.25v2l-2.875-.5c-2.927-.553-2.927-.553-5.125-.5l3.875 5.375 2.18 3.023C96.899 55.995 96.899 55.995 99 58l-4 2-1.625-2.937a213.79 213.79 0 0 0-5.437-8.937l-1.473-2.305C85.039 43.713 85.039 43.713 82 43l1-3c2-1 2-1 4.75-.25z" fill="#932b2b"/><path d="M151 9h5l2 10h3v2h-2l3 10c-1 1-1 1-4.062 1.063L155 32l-.148-3.324-.227-4.363-.094-2.186c-.272-4.96-1.3-8.664-3.531-13.127z" fill="#902525"/><path d="M25 110h2v3l1.793.586c6.768 2.23 6.768 2.23 9.895 3.539 2.742 1.037 5.416 1.471 8.313 1.875l-1 6h-2l-1.187-1.375c-2.614-2.343-5.453-2.801-8.812-3.625l-1 2v-4l-9-2 1-6z" fill="#922828"/><path d="M108 26l.734 1.941c1.617 4.174 3.232 8.2 5.516 12.059 1.75 3 1.75 3 1.75 5l3 1-6 3-.625-2.812C110.83 40.776 108.157 35.643 105 31l-3-1v-2c3-2 3-2 6-2z" fill="#8e2121"/><path d="M163 158l1 2-2.039 4.879c-2.979 6.575-5.394 13.072-6.961 20.121h-1l-1 8h-1c-.816-14.06 2.29-23.942 11-35z" fill="#f7efdb"/><path d="M371 150c2 2 2 2 2.125 4.625L373 157l-3.5-.125c-3.073-.011-5.722.323-8.687 1.125-3.191.837-5.561 1.203-8.812 1v2h-2v-5l3.578-.805 4.672-1.07 2.355-.527 2.285-.527 2.095-.476c2.162-.638 4.031-1.532 6.015-2.594z" fill="#8e2020"/><path d="M164 121l2 1v2l-2.02.996c-6.544 3.377-12.072 7.268-17.668 12.051C144 139 144 139 141 141l-2-2c5.767-5.744 11.485-10.642 18.563-14.687l1.84-1.062c1.495-.822 3.043-1.546 4.597-2.25z" fill="#ebd9d9"/><path d="M362 122h2l1 6-3.543 1.023-4.645 1.352-2.33.672c-3.917 1.143-7.726 2.342-11.482 3.953l-1-5 2.047-.348c3.513-.776 6.81-1.894 10.203-3.09l3.766-1.309c3.087-.916 3.087-.916 3.984-3.254z" fill="#861111"/><path d="M202 117v1l-1.845.136c-14.794.915-14.794.915-29.132 4.376-2.354.568-3.753.254-6.023-.512 1-2 1-2 3.484-3.07 11.402-3.682 21.745-3.418 33.516-1.93z" fill="#fbf1c8"/><path d="M44 80l2.938 2.625C51.041 86.152 55.457 89.077 60 92l3 2-2 4h-2v-3l-2.18-.781c-2.968-1.283-5.327-2.829-7.945-4.719l-2.57-1.844L44 86l-3-2 3-4z" fill="#912525"/><path d="M259 196l2 2c-.302 9.498-3.252 18.404-9 26l-1-2-2-1 1.426-2.422c4.191-7.393 6.978-14.142 8.574-22.578z" fill="#e7d1d1"/><path d="M358 112c2.248 2.052 3.002 3.007 4 6l-1.617.48c-5.362 1.679-10.243 3.827-15.219 6.434C343 126 343 126 340 127l-2-5 5.313-1.5 2.988-.844C349 119 349 119 352 119v-2l6-2v-3z" fill="#891616"/><path d="M307 46c3.161 1.37 3.993 1.989 6 5l-2.176.66c-3.547 1.683-5.428 3.834-8.012 6.777l-2.605 2.934c-2.276 2.613-2.276 2.613-4.207 5.629l-3-4a141.4 141.4 0 0 1 5-5h2l.75-1.75C302 54 302 54 304.063 52c2.014-2.079 2.536-3.188 2.938-6z" fill="#8b1a1a"/><path d="M110 193h1l.32 1.741 1.493 7.884.502 2.738c.975 5.041 2.28 9.058 4.686 13.637-1 2-1 2-3 3l-1.059-2.809-1.379-3.629-1.371-3.621c-.906-2.786-.906-2.786-2.191-3.941a108.3 108.3 0 0 1-.687-5.875l-.324-3.242C108 196 108 196 110 193z" fill="#e9d5d5"/><path d="M224 125c4.734.481 7.304 1.574 10.938 4.625l2.582 2.164A152.75 152.75 0 0 1 247 141l-1 2c-3.01-1.333-4.876-2.744-7.062-5.187-3.781-3.946-8.087-6.573-12.777-9.332L224 127v-2z" fill="#eedede"/><path d="M245 21l1 3-1 2c-.197 1.914-.197 1.914-.187 4l-.043 2.125c.065 2.12.065 2.12 2.23 3.875 3.761-.102 4.99-.991 7.813-3.562L257 30c.75 1.75.75 1.75 1 4-1.375 2.25-1.375 2.25-4 4-4.25.778-7.731.681-11.562-1.375-2.176-3.973-2.44-8.208-1.437-12.625 2.031-1.809 2.031-1.809 4-3z" fill="#8f2323"/><path d="M189 5h6l-.016 1.896-.047 8.479-.025 2.984-.01 2.852-.016 2.634c-.028 2.205-.028 2.205 1.114 4.155h-7l1-2 .133-4.281.004-2.551-.012-2.668.012-2.668-.004-2.551-.003-2.342C190.12 6.918 190.12 6.918 189 5z" fill="#8c1c1c"/><path d="M364 186h11v6c-2 2-2 2-4.937 2.375C367 194 367 194 365.125 192.25 364 190 364 190 364 186z" fill="#ecdcdc"/><path d="M68 53l.789 1.781c1.286 2.356 2.656 3.865 4.586 5.719l1.883 1.82L77 64l2.25 2.375C81.009 68.233 81.009 68.233 84 69v2c-2.562.438-2.562.438-6 0-3.622-2.757-6.406-6.236-9.187-9.812C66.985 58.982 65.639 58.037 63 57l5-4z" fill="#8e2020"/><path d="M41 250h2l1 6-2.633.77-3.492 1.043-3.445 1.02C30.118 260.3 26.25 261.75 23 265l-1-5c6.043-3.254 12.341-5.403 19-7v-3z" fill="#871313"/><path d="M151 242c4.936.543 8.799 2.184 13.125 4.5 5.214 2.828 5.214 2.828 10.875 4.5v3c-9.108-.959-17.246-4.869-24-11v-1z" fill="#fef8d6"/><path d="M353 199l1 2 21 1-1 4-21-1v-6z" fill="#8d1f1f"/><path d="M246 142c5.738 1.913 8.389 9.012 11.156 14.145 1.225 2.604 1.901 4.407 1.531 7.293L258 165h-2l-.883-2.273c-2.805-7.003-6.034-13.384-10.117-19.727l1-1z" fill="#fcf5d6"/><path d="M172.563 265.813c8.765 1.551 17.557 1.831 26.438 2.188v1l-3.359.184-4.391.254-2.211.119c-4.064.21-4.064.21-8.039 1.012-3.502.756-6.864-.581-10.25-1.506l-2.258-.592L163 267c3.509-2.231 5.553-1.998 9.563-1.187z" fill="#d8b4b4"/><path d="M342 84l2 1c-.187 1.813-.187 1.813-1 4-2.307 1.683-4.178 2.846-7 3.375-3.14.981-4.797 3.253-7 5.625l-3 3-2-5 2.938-1.625c3.863-2.192 7.499-4.668 11.145-7.203C340 86 340 86 342 86v-2z" fill="#8c1d1d"/><path d="M25.875 224.75l2.617-.078c2.958.387 4.3 1.377 6.508 3.328l-1 2-2-1c-6.561-.815-10.603.255-16 4l-2 2c-.312-2.25-.312-2.25 0-5 3.908-3.702 6.563-5.155 11.875-5.25z" fill="#881515"/><path d="M116 220c3.621 3.298 6.059 6.944 8.625 11.063l2.352 3.723L129 238l2 3-2 2c-13-15.452-13-15.452-13-23z" fill="#ecdad9"/><path d="M353 181l1 2 9.875-.437 2.84-.119 2.715-.127 2.507-.111c2.125-.088 2.125-.088 4.063-1.205v14l-2 1c-1.312-3.937-.243-6.125 1-10h-11v-1l-10-1v2h9v1h-9l-1 2v-8z" fill="#993737"/><path d="M345 89l1 7c-3.224 2.149-4.267 2.383-8 2l-2-2c.063-1.937.063-1.937 1-4 2.907-2.142 4.355-3 8-3z" fill="#f5ecec"/><path d="M200 350c1.813.188 1.813.188 4 1 3.089 4.024 3.407 7.186 3.375 12.188l.023 3.73L207 370l-3 2-.367-3.797-.508-4.953-.238-2.5-.254-2.422-.222-2.222c-.45-2.306-1.274-4.06-2.411-6.106z" fill="#861010"/><path d="M208 237l1 2c-5.821 2.525-11.465 2.297-17.687 2.25l-3.166.023-3.033-.008-2.757-.007C180 241 180 241 177 239h9v-1l9.875-1.062 2.84-.314 2.715-.283 2.507-.27C206 236 206 236 208 237z" fill="#f8ebbc"/><path d="M26.563 250.938L30 251l2 5c-3.73 2.034-5.669 3-10 3-.042-2.333-.041-4.667 0-7 1-1 1-1 4.563-1.062z" fill="#f7efef"/><path d="M276 172h1l.165 11.798.099 5.985.029 3.799.048 3.507C277 200 277 200 275.482 201.901L274 203l-.125-13.25-.051-3.801-.02-3.652-.032-3.364c.222-2.872.734-4.505 2.227-6.933z" fill="#f7efe3"/><path d="M185 146c7.434-.335 13.199-.139 20 3v1h-25l2-2h3v-2z" fill="#fcf7e0"/><path d="M157 10h6c2 2 2 2 2.25 4.5C165 17 165 17 163 19h-5l-1-9z" fill="#f7efef"/><path d="M201 102v1l-3.105.184-4.082.254-2.041.119A78.39 78.39 0 0 0 181 105l-4.812.063-2.395-.027L172 105l2-1v-2c8.721-2.069 18.204-1.407 27 0z" fill="#fdf7d8"/><path d="M290 44h3c-.452 2.935-1.289 4.424-3 6.938-1.885 2.886-2.604 4.694-3 8.063l-6-3v-2l3-1c1.653-2.277 3.054-4.653 4.5-7.066L290 44z" fill="#963030"/><path d="M352 208l2 1v2l21 1v5l-1-3-3.125.563c-6.292.818-12.587.012-18.875-.562v-6z" fill="#9f4545"/><path d="M373 167v6c-1 1-1 1-4.5 1.125C365 174 365 174 364 173v-5c3.196-1.065 5.657-1.074 9-1z" fill="#faf7f7"/><path d="M233.406 241.297L235 242c-6.553 5.26-12.187 9.645-21 9 3.31-2.629 6.807-4.7 10.5-6.75l3.406-1.922C231 241 231 241 233.406 241.297z" fill="#f8f1df"/><path d="M8 171h7l-1 3v-2H9v10h14v1H10l1 4 3 1v2H8v-19z" fill="#b67272"/><path d="M65 46l2 1c-6.331 7.1-12.697 13.869-20 20 0-3 0-3 1.652-4.993l2.285-2.238 2.461-2.432L56 54.813l2.602-2.561L65 46z" fill="#c9c9c9"/><path d="M29 103l1 2 1.594-.711c3.676-.442 5.754 1.257 8.906 3.086 4.995 2.969 4.995 2.969 10.5 4.625l-2 4-2.852-1.68-3.773-2.195-1.871-1.105c-3.745-2.168-7.322-3.797-11.504-5.02v-3z" fill="#973333"/><path d="M161 359h1v12l4 1v1l-4.25-.375-2.391-.211c-2.445-.429-4.208-1.2-6.359-2.414h5l.402-2.152.535-2.785.527-2.777C160 360 160 360 161 359z" fill="#8b1b1b"/><path d="M150 27h3v6c-9.41 3.26-9.41 3.26-14 4v-5h2l1-2 1 3 7-1v-5z" fill="#942e2e"/><path d="M129 16v21h-2l-.367-3.648-.508-4.727-.238-2.406c-.351-4.578-.351-4.578-2.887-8.219 3.75-2 3.75-2 6-2z" fill="#963333"/><path d="M364.75 224.875l2.402.027L373 225v6h-2v-2l-2.125-.184c-5.643-.498-11.259-1.075-16.875-1.816 3.976-2.715 8.139-2.224 12.75-2.125z" fill="#9c3e3e"/><path d="M12 152l5 1v2h-4l-2 11 3.313-.125C18 166 18 166 21 168H9c.459-5.665.897-10.672 3-16z" fill="#a75454"/><path d="M37 89h2v3l1.938.688C45.133 94.486 49.039 96.739 53 99l-2 2-2.484-1.277-3.266-1.66-3.234-1.652c-2.4-1.122-4.434-1.915-7.016-2.41l2-5z" fill="#922929"/><path d="M142 202c2.547 2.547 3.699 5.187 5.25 8.438l1.703 3.496L150 217l-2 3c-3-4.75-3-4.75-3-7h-2l-1.062-4.375-.598-2.461C141 204 141 204 142 202z" fill="#f8f1e0"/><path d="M199 5h9l-.375 8.25-.094 2.355-.117 2.285-.095 2.095C207 22 207 22 205 26l1-19-4 1-1 3h-2V5z" fill="#a95656"/><path d="M170 235l8.133 1.477c7.248 1.603 14.465 2.118 21.867 2.523v1l-9 .125-2.543.051c-12.658.098-12.658.098-17.457-3.801L170 235z" fill="#fefcf2"/><path d="M217 353h2l.563 4.938.316 2.777L220 363c-1 1-1 1-4.062 1.063L213 364l1.438-4.375.809-2.461C216 355 216 355 217 353z" fill="#e9d4d4"/><path d="M184 363l1 2h2c-1.31 3.93-2.667 6.478-6 9-3.75.75-3.75.75-7 1l1-3 2.875-.75c3.133-.899 3.133-.899 4.188-2.93.727-1.742 1.341-3.53 1.938-5.32z" fill="#9a3939"/><path d="M216 350l1 2 2 1h-2l-.621 1.898-.816 2.477-.809 2.461C214 362 214 362 213 364l3 1v1h-6c.628-3.949 1.865-7.199 3.563-10.812l1.379-2.957L216 350z" fill="#942e2e"/><path d="M84 323l7 5 1-2v4c-3.31 1.655-6.991 1.101-10.625 1.063l-2.43-.014L73 331v-1l13-1-4-4h2v-2z" fill="#9e4040"/><path d="M185 209l7.375.375 2.117.094c5.281.305 5.281.305 7.508 2.531-3.49 1.163-6.323 1.168-10 1.188l-3.75.043C185 213 185 213 182 211h6l-3-2z" fill="#faefbb"/><path d="M34 138h5c-.34 7.959-.34 7.959-2.625 11.563-3.219 1.948-5.685 1.721-9.375 1.438l-1-2 9-2c.685-2.858.685-2.858 1-6l-2-3z" fill="#8d1e1e"/><path d="M343 247l5 1v2l-4 1-1 6 5 1-4 1v2l-3-1c-1.41-2.82-1.245-4.87-1-8 1.5-2.875 1.5-2.875 3-5z" fill="#9e4040"/><path d="M241 161c4.363 4.778 6.188 11.189 6.188 17.563L247 182h-1l-1-7h-2l-.937-3.437c-.692-3.35-.692-3.35-2.062-4.562-.125-2.5-.125-2.5 0-5l1-1z" fill="#f6ebce"/><path d="M163 140c0 3 0 3-2.625 5.699L157 148.688l-1.734 1.549L151 154l-1-4c8.262-7.483 8.262-7.483 13-10z" fill="#f9f3e3"/><path d="M98 31l1.25 3.063c1.635 3.834 3.628 7.353 5.75 10.938h-3c-1.5-1.934-1.5-1.934-3-4.437-2.136-3.792-2.136-3.792-6-5.562v-2c3-2 3-2 5-2z" fill="#983535"/><path d="M219 251c-7.356 3.961-12.845 4.074-21 3v-1l6.563-1.562 3.691-.879c3.882-.579 6.912-.304 10.746.441z" fill="#eedecf"/><path d="M8 191l2.055 1.277c6.395 3.765 11.5 5.69 18.945 5.723v1h-9l-1 2v-2l-2.187-.437-5.562-1.125c-2.032-.469-2.032-.469-3.25-.437v-6z" fill="#a95858"/><path d="M127 204c1.794 2.691 2.973 5.086 4.188 8.063l1.105 2.66C133 217 133 217 132 219h-3c-2.491-5.68-3.388-8.945-2-15z" fill="#e0c4c4"/><path d="M168 178h1v17c-3-3-3-3-3.293-5.699l.105-2.988.082-3.012L166 181h2v-3z" fill="#fefae0"/><path d="M201 147c4.143.598 7.182 2.007 10.813 4.063l2.957 1.66L217 154c-1.672 1.148-1.672 1.148-4 2-2.578-.898-2.578-.898-5.25-2.375l-2.703-1.461L203 151l1-2-3-2z" fill="#f5e9ca"/><path d="M204 132c5.07.654 9.42 2.855 14 5l-2 2c-4.101-.469-8.048-1.838-12-3l2-2-2-2z" fill="#f6ebd1"/><path d="M202 117v1l-25 1c7.452-4.968 16.515-2.992 25-2z" fill="#fefcf1"/><path d="M210 202h3c-1.501 3.82-3.592 5.754-7 8-3.312.75-3.312.75-6 1v-2c1.68-1.219 1.68-1.219 3.875-2.5 2.379-1.398 4.163-2.538 6.125-4.5z" fill="#fbf5dc"/><path d="M153 182c2.159 3.238 2.504 5.139 3.063 8.938.511 3.407 1.032 6.736 1.938 10.063-1.937-.812-1.937-.812-4-2-1.187-3.56-1.097-6.438-1.062-10.187l.027-3.855L153 182z" fill="#fefae5"/><path d="M189 4c7.75-.125 7.75-.125 10 1v6l-2-4c-1.514 1.514-1.213 2.925-1.316 5.035l-.127 2.451-.119 2.576-.131 2.588L195 26h-1V6l-5-1V4z" fill="#d5acac"/><path d="M52 88c3.791 1.45 7.387 3.152 11 5l-2 5h-2v-3l-2.375-.687C54 93 54 93 52.688 90.375L52 88z" fill="#8c1d1d"/><path d="M250 225c.695 1.771.695 1.771 1 4-1.232 1.831-1.232 1.831-3.113 3.672l-2.033 2.012-2.166 2.066-2.131 2.113C236.294 244 236.294 244 234 244v-2l3.563-3.125c4.631-3.931 9.684-8.369 12.438-13.875z" fill="#fcde20"/><path d="M254 212h3c-.476 4.999-2.032 7.978-5 12l-1-2-2-1 5-9z" fill="#e3cac8"/><path d="M244 179h1l1 14h1c-.75 6.625-.75 6.625-3 10l-2-1 .48-1.716c.528-2.319.724-4.458.836-6.831l.127-2.559.119-2.645.131-2.691L244 179z" fill="#f1e1ba"/><path d="M265 145c3 1 3 1 4.168 2.672 3.385 6.901 3.385 6.901 2.832 11.328h-2l-2.5-5.312-1.406-2.988C265 148 265 148 265 145z" fill="#fff9de"/><path d="M57 101v2H37v-1l7.188-1.062 2.041-.314c3.85-.545 7.012-.667 10.771.377z" fill="#830a0a"/><path d="M147 11l1 4-2.047-.035-2.703-.027-2.672-.035c-2.369.09-4.306.47-6.578 1.098h-2v-2l4.688-1.5 2.637-.844c2.67-.655 4.94-.775 7.676-.656z" fill="#a14747"/><path d="M13 231l.813 1.688L15 235l1.25 2.688c1.585 2.621 1.585 2.621 4.75 2.938l3 .375c1.688 1.523 1.688 1.523 3 3-3.076.362-5.932.487-9 0-3.062-2.562-3.062-2.562-5-6-.312-3.875-.312-3.875 0-7z" fill="#9f4242"/><path d="M155 174h1c.25 7.625.25 7.625-2 11-.451 2.049-.451 2.049-.625 4.188L153 193h-1l-.125-6.187-.07-3.48c.203-3.462.642-6.778 3.195-9.332z" fill="#fef4b6"/><path d="M42.688 118.375l2.449.336L47 119l-1 6h-2l-1.25-1.375c-2.331-2.165-4.728-2.752-7.75-3.625 3.353-2.236 3.907-2.173 7.688-1.625z" fill="#942d2d"/><path d="M316 294v9h-1l-1-5-8 8c0-3.927 1.279-4.819 3.875-7.687l2.18-2.449C314 294 314 294 316 294z" fill="#9c3b3b"/><path d="M317 55c3.875 1.75 3.875 1.75 5 4l-10 6c0-3 0-3 1.938-5L316 58l1-3z" fill="#8a1919"/><path d="M218 347h3l1 11-3 2v-8h-2l1-5z" fill="#8d2020"/><path d="M364 239l6 1-3 11-5-1v-2l1.938-.625c2.412-1.27 2.412-1.27 2.813-4.5L367 240l-3-1z" fill="#a04545"/><path d="M258 134c3.662 1.221 4.163 2.368 6.188 5.563l1.605 2.504L267 144l-1 2h-2c-1.508-1.863-1.508-1.863-3.125-4.312l-1.633-2.426C258 137 258 137 258 134z" fill="#f0e2da"/><path d="M186 132l8.813-.125 2.525-.051 2.432-.02 2.238-.032C204 132 204 132 207 134c-1 1-1 1-4.437 1.125C199 135 199 135 197 134l-5.625-.562-3.039-.254L186 133v-1z" fill="#fbf6eb"/><path d="M207 12h1v15h2v2h-7v-2l2-1 1.125-7.062.508-3.91L207 12z" fill="#8e1f1f"/><path d="M29 155h5l-1 16-2-1 1-3-2-1h2l-.375-3.937-.211-2.215L31 158l-2-1v-2z" fill="#a24a4a"/><path d="M224 125c5.35.373 7.509 1.996 11 6l-2 2-4.5-2.875-2.531-1.617L224 127v-2z" fill="#e8d3d3"/><path d="M21 122c2.938 1.75 2.938 1.75 6 4l1 4-9-2c.875-4.875.875-4.875 2-6zM233 10h5v2c-1.426 1.402-1.426 1.402-3.312 2.938-2.351 1.927-4.57 3.88-6.687 6.063l-2-1 1-3h2l4-7z" fill="#983535"/><path d="M300 322l1 2 2 1-4 3 5 1v1h-8v-2h-2l1-4 1 2 4-4z" fill="#9b3939"/><path d="M229 259c2 1 2 1 3 3-4.622 2.219-7.768 3.383-13 3 3.125-2.524 6.313-4.397 10-6z" fill="#f4e8d3"/><path d="M181 223l18 1c-2 2-2 2-4.426 2.266l-2.887-.016-2.863.016c-2.95-.277-5.143-1.035-7.824-2.266v-1z" fill="#fefcf6"/><path d="M173 219l4.438 1.375 2.496.773C182 222 182 222 183 224l3 2c-5.774-.481-9.959-2.185-15-5l2-2z" fill="#fff6c9"/><path d="M222 210l1 3-3.312 3-1.863 1.688C216 219 216 219 213 219c1.517-4.55 5.169-6.501 9-9z" fill="#fdf8de"/><path d="M347 120v4c-4.071 3-4.071 3-7 3l-2-5c6.75-2 6.75-2 9-2z" fill="#932c2c"/><path d="M352 101l3 1 1 5-7 1v-2l-2-1 1.938-.875c2.215-.953 2.215-.953 3.063-3.125z" fill="#9b3a3a"/><path d="M184 20h2c.125 5.75.125 5.75-1 8h-11l1-4 2 2c2.584.167 2.584.167 5 0l2-6z" fill="#8c1d1d"/><path d="M154 261c4.973.497 8.638 1.553 13 4v1c-5.232.383-8.378-.781-13-3v-2z" fill="#f7edda"/><path d="M216 177c3 3 3 3 3.293 6.137l-.105 3.551-.082 3.574L219 193h-2l-1-16z" fill="#fcfaf3"/><path d="M355 150l1 3c2 1.209 2 1.209 4 2l-2.152.148-2.785.227-2.777.211L350 156l-1 2v-5l6-1v-2z" fill="#dcbcbc"/><path d="M307 46c3.161 1.37 3.993 1.989 6 5l-3.812 1.5-2.145.844C305 54 305 54 302 54l1.938-1.75c2.045-2.231 2.645-3.324 3.063-6.25z" fill="#942c2c"/><path d="M245 21c1 3 1 3 .125 4.813L244 28l-1 6h-2l-.25-4.812-.141-2.707C241 24 241 24 243.016 22.176L245 21z" fill="#8b1a1a"/><path d="M25 206h7l1 9-2 1-2-7-4-1v-2z" fill="#9a3939"/><path d="M108 26l2 8-4-1-1-2-3-1v-2c3-2 3-2 6-2z" fill="#973232"/><path d="M199.25 349.313L201 350l-2.449 1.113c-2.829 1.67-2.829 1.67-3.258 4.805l-.105 3.27-.145 3.293L195 365h-1l-.5-4.812-.281-2.707L193 352c2.169-2.169 3.141-3.119 6.25-2.687z" fill="#9f4242"/><path d="M362 255h1c.369 7.385.369 7.385-1.5 10.5L360 267l-4-1v-2l4-1 2-8z" fill="#9d3e3e"/><path d="M264 228l1 3c-.996 1.824-.996 1.824-2.437 3.688l-1.434 1.887L260 238l-3-2 2.375-3.437 1.336-1.934C262 229 262 229 264 228z" fill="#e9d6d6"/><path d="M363 167l4 1h-3l1 5 6 1-1 2-6 1c-1.804-2.759-2.013-3.89-1.625-7.25L363 167z" fill="#ac5c5c"/><path d="M374 168h1c.361 6.378.361 6.378-1.125 8.938-2.66 1.507-4.877 1.262-7.875 1.063v-2l2.375-.875c2.722-.974 2.722-.974 4.625-3.125.643-2.069.643-2.069 1-4z" fill="#8d1e1e"/><path d="M366 133l2 1v4l-11 1c2.741-2.741 5.549-4.213 9-6z" fill="#881515"/><path d="M213 120c4.973.497 8.638 1.553 13 4l-3 2c-2.227-.609-2.227-.609-4.625-1.75l-2.414-1.109C214 122 214 122 213 120z" fill="#f3e8e4"/><path d="M312 80l1.563 1.938c3.097 2.62 5.458 2.756 9.438 3.063-1.312 2-1.312 2-3 4h-3c-1.605-1.75-1.605-1.75-3.187-4l-1.605-2.25L311 81l1-1z" fill="#9b3a3a"/><path d="M155 8h11v3c-3.112 0-5.942-.456-9-1l-1 4-1-6z" fill="#9e4141"/><path d="M176 5h10v5l-3-1V7l-7 1V5z" fill="#a34a4a"/><path d="M253 351l2 2-4.25 1.063-2.391.598c-2.463.355-4.015.109-6.359-.66l3.813-2.062 2.145-1.16C250 350 250 350 253 351z" fill="#932a2a"/><path d="M32 239v3c-2.645 1.322-4.678 1.097-7.625 1.063l-3.039-.027L19 243v-1l4.25-1.5 2.391-.844C28 239 28 239 32 239z" fill="#850e0e"/><path d="M174 7h2l.375 2.875c.342 3.212.342 3.212 2.625 5.125-1.875.625-1.875.625-4 1-2-2-2-2-2.187-5.062C173 8 173 8 174 7z" fill="#8a1a1a"/><path d="M151 9h5l1 10-2 1-.621-1.898-.816-2.477-.809-2.461C152.048 10.99 152.048 10.99 151 9z" fill="#861212"/><path d="M230 173c2 3 2 3 1.66 4.828L231 180l-.562 5.75-.254 2.984L230 191h-1l-1-16h2v-2z" fill="#eed99f"/><path d="M293 44c-.574 3.871-2.487 6.082-5 9-.687-2.25-.687-2.25-1-5 2.162-4 2.162-4 6-4z" fill="#8f2323"/><path d="M123 34l3 1v2h3v5c-2.468-1.152-4.048-2.048-6-4v-4z" fill="#8d1f1f"/><path d="M223 265c-3.285 2.19-6.207 2.998-10 4l-3-3c4.791-1.629 8.056-2.206 13-1z" fill="#e3c9c9"/><path d="M167 231.813c3 1.188 3 1.188 5 3.188l-1 2c-3.775-1.091-6.47-1.908-9-5 2-1 2-1 5-.187z" fill="#fff6c5"/><path d="M10 217c5.538.615 5.538.615 7.875 2.563L19 221l-2.875.375c-3.212.342-3.212.342-5.125 2.625-1-1-1-1-1.062-4.062L10 217z" fill="#963131"/><path d="M169 192c1.991 2.986 2.941 5.597 4 9l-2 2c-2.995-4.58-2.995-4.58-4-7 .75-2.437.75-2.437 2-4z" fill="#f6eccc"/><path d="M110 193h1l.563 4.75.316 2.672c.156 3.32-.403 5.625-1.879 8.578-1.794-1.794-1.463-4.442-1.687-6.875l-.324-3.242C108 196 108 196 110 193z" fill="#d4acac"/><path d="M371 150c2 2 2 2 2.125 4.625L373 157l-4-1v-2h-5a56.54 56.54 0 0 1 7-4z" fill="#a04444"/><path d="M319 59l3 1-10 10-2-1 9-10z" fill="#eddddd"/><path d="M261 38l3 1v6l-6-2v-2h2l1-3z" fill="#9c3d3d"/><path d="M267 32l8 2-2 6h-2v-4l-5-1 1-3z" fill="#9a3939"/><path d="M272 23l9 4-1 5h-2l-.125-1.812c-.752-2.539-.752-2.539-3.937-3.937L271 25l1-2z" fill="#973434"/><path d="M321 291h1v13l2 1-5 4c0-3 0-3 1-4l.563-7.062.254-3.91L321 291z" fill="#a24848"/><path d="M333 279v6l-2-3-7 7c0-3.956 1.405-5.109 4-8 3-2 3-2 5-2z" fill="#952e2e"/><path d="M23 226h10l2 4-13-2 1-2z" fill="#881414"/><path d="M352 208l2 1v2l3.375-.125C361 211 361 211 363 213l-11 1v-6z" fill="#932b2b"/><path d="M348 146l2 3c2.563.73 2.563.73 5 1v2l-7 1-1-6 1-1z" fill="#9a3939"/><path d="M346 109c2.541 2.983 3.28 5.196 4 9l2 1-5 1-.375-2.75c-.546-2.84-1.198-4.776-2.625-7.25l2-1z" fill="#a65050"/><path d="M145 19h2l1 6-7-1-1 3-1-4 6-1v-3z" fill="#9b3b3b"/><path d="M110 168h1v13c-3-3-3-3-3.363-4.973.141-5.805.141-5.805 2.363-8.027z" fill="#fef4bf"/><path d="M216 138c4.401.503 6.712 2.088 10 5-1.625.75-1.625.75-4 1-3.25-1.812-3.25-1.812-6-4v-2z" fill="#f5ebdb"/><path d="M17 133l5 1v2l-4 1-1 5c-2-3-2-3-1.687-5.625C16 134 16 134 17 133z" fill="#9f4343"/><path d="M362 122h2l1 6-6 1 1-3-2-1 3-1 1-2z" fill="#9a3939"/><path d="M159 107c2 1 2 1 3 3-5.75 3-5.75 3-8 3l-1-3 6-3z" fill="#e4cbcb"/><path d="M70 76l4 2c-1.625 5.75-1.625 5.75-5 8 0-2.651.368-4.473 1-7v-3z" fill="#993737"/><path d="M321 72l2 4h4c-.812 1.938-.812 1.938-2 4l-3 1-.375-2.375c-.416-2.766-.416-2.766-2.625-4.625h2v-2z" fill="#9c3d3d"/><path d="M327 67c3.255.349 4.019 1.021 6.25 3.563L335 73l-2 4h-2l-.312-3.312c-.661-3.543-.89-4.62-3.687-6.687z" fill="#983434"/><path d="M175 360l2 1h7l-1 3h-9l-1-2h2v-2z" fill="#9d3f3f"/><path d="M142 202c2.686 2.686 3.06 5.376 4 9l-3 2-1.062-4.375-.598-2.461C141 204 141 204 142 202z" fill="#f5e8c9"/><path d="M172 201c3.367 1.393 4.986 2.979 7 6l-2 2-5-5v-3z" fill="#f9f1dd"/><path d="M277 193c.188 3.313.188 3.313 0 7l-3 3v-9c2-1 2-1 3-1z" fill="#efe0e0"/><path d="M20 180h11v5c-7.625-1.625-7.625-1.625-11-5z" fill="#891818"/><path d="M360 154h9v2l-10 1 1-3z" fill="#861010"/><path d="M15 139l1.813 2.313c1.657 2.036 3.29 3.885 5.188 5.688l-3 2c-3.938-4.308-3.938-4.308-4.25-7.812L15 139z" fill="#8f2222"/><path d="M297 40c4.75.875 4.75.875 7 2-.312 1.938-.312 1.938-1 4l-3 1-.375-2.375c-.416-2.766-.416-2.766-2.625-4.625z" fill="#9a3939"/><path d="M150 27h3v6c-1.875.625-1.875.625-4 1l-2-2h3v-5z" fill="#a24949"/><path d="M267 331l2 1-1.68 1.645-2.195 2.168-2.18 2.145c-2.099 2.087-2.099 2.087-3.945 5.043.416-4.855 2.459-6.804 6-10l2-2z" fill="#963030"/><path d="M41 250h2l1 6-7-1 1-2h3v-3z" fill="#9a3939"/><path d="M29 248l4 4v3l3 1-5 1-1-5-5-1 4-1v-2z" fill="#a34b4b"/><path d="M28 247l1 3c-2.812.625-2.812.625-6 1l-3-2c3.228-2.152 4.284-2.201 8-2z" fill="#922929"/><path d="M357 237c2.125 3.188 2.502 5.265 3 9l-6-1v-2l2-1c.656-2.527.656-2.527 1-5z" fill="#9f4242"/><path d="M16 204v2l-7 4v-5c3-1 3-1 7-1z" fill="#861010"/><path d="M169 157l2 1-9 9c0-3.956 1.405-5.109 4-8l3-2z" fill="#deb140"/><path d="M304 323l2 1-3 3 5 1v1h-10l6-6z" fill="#e8d3d3"/><path d="M370 214h4l-1 4-7 1c1.75-2.5 1.75-2.5 4-5z" fill="#830b0b"/><path d="M342 130h8v2c-4.385 3-4.385 3-7 3l-1-5z" fill="#861111"/><path d="M349 106c-1 3-1 3-2.875 4.25C344 111 344 111 341 110c3.5-4 3.5-4 8-4z" fill="#891616"/><path d="M219 106c3.375.547 5.082 1.055 8 3l-1 2-7-2v-3z" fill="#e7d1d1"/><path d="M324 304l2 1-3 3 3 2-7 1c1.293-2.884 2.659-4.872 5-7z" fill="#dec0c0"/><path d="M156 168l3 2-2 7-3-2 2-7z" fill="#f5e9c4"/><path d="M23 166c6.75-.125 6.75-.125 9 1l-1 3c-5.75-1.75-5.75-1.75-8-4z" fill="#850e0e"/><path d="M362 137l-3 1 2 2-6 1v-2l-2-1c3.426-1.618 5.381-2.341 9-1z" fill="#9f4343"/><path d="M203 368l2 4c-1.125 1.5-1.125 1.5-3 3-3.187.188-3.187.188-6 0l2-2h4l1-5z" fill="#9d4040"/><path d="M200 350c1.875.25 1.875.25 4 1 1.25 2.063 1.25 2.063 2 4h-2l-1 4-.937-3.375c-.886-3.42-.886-3.42-2.062-5.625z" fill="#8c1f1f"/><path d="M109 340c4.875 1.75 4.875 1.75 6 4l-1 2c-2.993-.998-3.948-1.752-6-4l1-2z" fill="#993434"/><path d="M249 222h2c-.547 3.375-1.055 5.082-3 8h-2c1.875-6.875 1.875-6.875 3-8z" fill="#fdf8e0"/><path d="M125 196h1l1 12-2-1c-.997-3.989-1.05-7.032 0-11z" fill="#efe2e2"/><path d="M254 128l5 4-2 4c-2.624-3.061-3-3.732-3-8z" fill="#e6cfcf"/><path d="M37 89h2v3l2 1v2l-6-1 2-5z" fill="#a14747"/><path d="M89 42c5.75.875 5.75.875 8 2v2c-5.75-.875-5.75-.875-8-2v-2z" fill="#861010"/><path d="M225 24h1v7h-5l4-7z" fill="#840d0d"/><path d="M166 10h2c.188 2.875.188 2.875 0 6l-3 2v-7l1-1z" fill="#891616"/><path d="M189 4c7.75-.125 7.75-.125 10 1v6l-2-4-2 1V5h-6V4z" fill="#e4caca"/><path d="M350 258l-1 4h-5v-3c2.076-.553 3.844-1 6-1z" fill="#891717"/><path d="M343 247l5 1v2l-1.875.375c-2.316.497-2.316.497-4.125 2.625l-1-2 2-4z" fill="#953030"/><path d="M26.125 224.938l2.758.027L31 225v1l-8 1-1 3-2-1 1-2-2-1c2.525-1.262 4.312-1.099 7.125-1.062z" fill="#983636"/><path d="M139 196h2l1 8h-2c-1.354-2.709-1.065-5.009-1-8z" fill="#fbf4e4"/><path d="M8 184l1.313 1.438c1.711 1.799 1.711 1.799 4.688 2.563v2H8v-6z" fill="#922929"/><path d="M195 186l-1 3-4-1v-2l-3-1c3.623-1.208 4.641-.543 8 1z" fill="#e0af10"/><path d="M111 162h2l-1 10c-2.178-4.355-2.03-5.466-1-10z" fill="#fff9dc"/><path d="M256 157c1.563 1.75 1.563 1.75 3 4-.312 2.25-.312 2.25-1 4h-2c-1.125-5.75-1.125-5.75 0-8z" fill="#fef6c2"/><path d="M168 138v2c-3.368 1.796-5.183 2-9 2 4.5-4 4.5-4 9-4z" fill="#f4e7cd"/><path d="M242 137l5 5h-4c-1.75-2-1.75-2-3-4l2-1z" fill="#e9d5d5"/><path d="M351 131l2 1-3.875 2.5-2.18 1.406C345 137 345 137 343 137v-2l3.875-2.062 2.18-1.16L351 131z" fill="#d6aeae"/><path d="M210 104l9 1v2l-8-1-1-2z" fill="#f6eeed"/><path d="M156 26h1v5h2v-5l3 4-1 2h-6l1-6z" fill="#ab5b5b"/><path d="M210 6h7v6h-2V8l-5-1V6z" fill="#8f2424"/><path d="M136 352l6 2 1 2-9-1 2-3z" fill="#9a3636"/><path d="M216 350l1 2 2 1h-2l-1 5h-3l3-8z" fill="#a34c4c"/><path d="M49 286l4 4-2 1v2l-4-1h3l-2-5 1-1z" fill="#952d2d"/><path d="M364 236l6 1v3l-8-1 2-1v-2z" fill="#8a1818"/><path d="M131 218l3 1c1.188 2.563 1.188 2.563 2 5l-2 2c-3-4.625-3-4.625-3-8z" fill="#efe1df"/><path d="M367 216l2 1-2 4c-1.937-.375-1.937-.375-4-1l-1-2 5-2z" fill="#9e4141"/><path d="M8 191l6 4v1l-6 1v-6z" fill="#8c1e1e"/><path d="M204 132c4.75.75 4.75.75 7 3l-1 2-6-1 2-2-2-2z" fill="#efdcaa"/><path d="M36 131h6l-1 4-5-2v-2z" fill="#871212"/><path d="M355 128l-1 3c-2.062.688-2.062.688-4 1v-2l-4 1c1-2 1-2 3.938-3.187C353 127 353 127 355 128z" fill="#9a3a3a"/><path d="M311 51a56.54 56.54 0 0 1-4 7h-2c.628-3.645 1.853-7 6-7z" fill="#e6cfcf"/><path d="M217 6h6l-3 2v3l-2-1-1 2V6z" fill="#debfbf"/><path d="M199 5h5l-3 6h-2V5z" fill="#932c2c"/><path d="M355 254h7v3l-8-1 1-2z" fill="#871212"/><path d="M259 237c-1.75 4.875-1.75 4.875-4 6l-2-2c3.75-4 3.75-4 6-4z" fill="#f5eadd"/><path d="M361 219l3 1c-1.187 1.5-1.187 1.5-3 3-2.687.188-2.687.188-5 0 2.313-2.062 2.313-2.062 5-4z" fill="#850f0f"/><path d="M169 173c1.125 1.75 1.125 1.75 2 4-.875 2.25-.875 2.25-2 4h-2c.875-5.75.875-5.75 2-8z" fill="#f7eece"/><path d="M352 166h8c-2.463 2.463-4.707 2.998-8 4v-4z" fill="#7f0303"/><path d="M241 161l3 4-1 2h-3v-5l1-1z" fill="#fff5c1"/><path d="M29 155h5v6l-5-4v-2z" fill="#922a2a"/><path d="M33 116l5 1v2l-3 1-2 2v-6z" fill="#871212"/><path d="M358 112c2.248 2.052 3.002 3.007 4 6h-5l1-6z" fill="#942c2c"/><path d="M161 106h7l-1 2-7 1 1-3z" fill="#eedede"/><path d="M93 54c2.468 1.152 4.048 2.048 6 4l-4 2-2-6z" fill="#8f2424"/><path d="M155 24h1l-.062 3.375c-.201 3.457-.201 3.457 1.063 5.625h-4v-4h2v-5z" fill="#ecdbdb"/></svg>